<?xml version="1.0" encoding="UTF-8"?>
<!DOCTYPE svg PUBLIC "-//W3C//DTD SVG 1.1//EN" "http://www.w3.org/Graphics/SVG/1.1/DTD/svg11.dtd">
<!-- Creator: CorelDRAW -->
<svg xmlns="http://www.w3.org/2000/svg" xml:space="preserve" width="2480px" height="3508px" version="1.1" style="shape-rendering:geometricPrecision; text-rendering:geometricPrecision; image-rendering:optimizeQuality; fill-rule:evenodd; clip-rule:evenodd"
viewBox="0 0 2480 3507.43"
 xmlns:xlink="http://www.w3.org/1999/xlink"
 xmlns:xodm="http://www.corel.com/coreldraw/odm/2003"
 zoomAndPan="magnify">
 <defs>
  <style type="text/css">
   <![CDATA[
    .fil1 {fill:none;fill-rule:nonzero}
    .fil0 {fill:#E2E2EB;fill-rule:nonzero}
   ]]>
  </style>
   <clipPath id="id0" style="clip-rule:nonzero">
    <path d="M1271.25 1339.75l91.65 0 0 20.26 -91.65 0 0 -20.26zm0 0z"/>
   </clipPath>
   <clipPath id="id1" style="clip-rule:nonzero">
    <path d="M1167.09 1339.75l95.82 0 0 11.93 -95.82 0 0 -11.93zm0 0z"/>
   </clipPath>
   <clipPath id="id2" style="clip-rule:nonzero">
    <path d="M822.82 1659.98l15.15 0 0 95.82 -15.15 0 0 -95.82zm0 0z"/>
   </clipPath>
   <clipPath id="id3" style="clip-rule:nonzero">
    <path d="M822.82 1722.47l10.98 0 0 95.82 -10.98 0 0 -95.82zm0 0z"/>
   </clipPath>
   <clipPath id="id4" style="clip-rule:nonzero">
    <path d="M900.46 1964.1l62.49 0 0 50.57 -62.49 0 0 -50.57zm0 0z"/>
   </clipPath>
   <clipPath id="id5" style="clip-rule:nonzero">
    <path d="M1646.2 1605.82l10.89 0 0 49.99 -10.89 0 0 -49.99zm0 0z"/>
   </clipPath>
   <clipPath id="id6" style="clip-rule:nonzero">
    <path d="M1646.2 1605.82l10.89 0 0 24.99 -10.89 0 0 -24.99zm0 0z"/>
   </clipPath>
 </defs>
 <g id="Capa_x0020_1">
  <metadata id="CorelCorpID_0Corel-Layer"/>
  <path class="fil0" d="M1067.82 1384.23c0.73,-2.36 1.81,-3.86 3.22,-4.51l18.98 -8.26c17.82,-6.45 41.82,-14.44 60.07,-19.57l8.96 -2.05c-1.51,0.59 -2.65,2.09 -3.4,4.54 -13.68,4.76 -31.88,11.25 -45.21,16.9 -12.87,3.54 -30.02,8.46 -42.62,12.95z"/>
  <path class="fil0" d="M978.95 1439.61c0.54,-1.76 1.29,-3.03 2.23,-3.79l0.32 -0.26c35.87,-26.79 36.56,-27.29 56.74,-38.86l19.9 -10.71c-1.37,0.66 -2.39,2.15 -3.09,4.42 -12.36,7.88 -28.74,18.51 -40.54,27.15 -10.84,6.33 -25.24,14.91 -35.56,22.05z"/>
  <polygon class="fil0" points="1640.18,1587.72 1640.55,1587.98 1648.85,1608 "/>
  <path class="fil0" d="M1613.15 1540.64c0.14,-0.44 0.35,-0.72 0.61,-0.82 7.08,11.93 16.39,27.93 22.74,40.25l12.35 27.93 -12.84 -27.26c-6.65,-12.14 -15.64,-28.29 -22.86,-40.1z"/>
  <path class="fil0" d="M1546.86 1461.5c0.33,-1.01 0.8,-1.63 1.42,-1.87 9.6,9.55 22.31,22.37 31.34,32.46 8.14,10.68 18.9,25 26.5,36.05 -0.31,0.13 -0.57,0.46 -0.72,0.98 -8.15,-10.42 -19.12,-24.27 -27.93,-34.15 -9.01,-10.18 -21.12,-23.71 -30.61,-33.47z"/>
  <path class="fil0" d="M1465.17 1401.3c0.47,-1.51 1.18,-2.44 2.11,-2.81 11.59,6.96 26.97,16.33 38.12,23.95 10.04,8.19 23.33,19.22 32.92,27.93 -0.67,0.26 -1.17,0.92 -1.5,2.01 -10.33,-7.76 -24.21,-18.01 -35.04,-25.06 -10.85,-7.99 -25.38,-18.55 -36.61,-26.02z"/>
  <path class="fil0" d="M1372.24 1361.77c0.59,-1.94 1.48,-3.12 2.69,-3.59 12.98,4.13 30.28,9.78 43.01,14.67 11.41,5.49 26.57,12.93 37.64,19.05 -0.96,0.38 -1.69,1.36 -2.18,2.92 -11.99,-4.89 -28.06,-11.31 -40.34,-15.39 -12.16,-5.52 -28.4,-12.78 -40.82,-17.66z"/>
  <g>
  </g>
  <g style="clip-path:url(#id0)">
   <g id="_2549146870144">
    <path class="fil0" d="M1272.22 1344.62c0.7,-2.25 1.74,-3.63 3.13,-4.18 13.47,1.07 31.44,2.57 44.82,4.46l1.85 0.29c12.06,2.52 28.14,6.02 40.02,9.31 -1.22,0.47 -2.15,1.69 -2.75,3.68 -13.12,-1.88 -30.61,-4.22 -43.83,-5.18 -12.9,-2.78 -30.17,-6.38 -43.24,-8.38z"/>
   </g>
  </g>
  <path class="fil1" d="M1271.25 1339.75l91.65 0 0 20.26 -91.65 0 0 -20.26zm0 0z"/>
  <g>
  </g>
  <g style="clip-path:url(#id1)">
   <g id="_2549146871536">
    <path class="fil0" d="M1169.31 1351.55c0.74,-2.42 1.88,-3.94 3.38,-4.51l17.74 -3.06c10.32,-1.09 24.05,-2.94 34.4,-3.63l12.7 -0.61 24.29 0.14c-1.41,0.56 -2.47,1.96 -3.17,4.24 -13.67,1.34 -31.9,3.31 -45.44,5.61 -13.18,0.23 -30.77,0.7 -43.9,1.82z"/>
   </g>
  </g>
  <path class="fil1" d="M1167.09 1339.75l95.82 0 0 11.93 -95.82 0 0 -11.93zm0 0z"/>
  <path class="fil0" d="M908.39 1512.53c0.32,-1.07 0.73,-1.93 1.23,-2.6 6.85,-8.38 15.74,-19.76 22.95,-27.84 11.15,-11.48 26.18,-26.63 38.01,-37.39 -0.87,0.77 -1.57,1.99 -2.1,3.67 -10,10.18 -23.27,23.9 -32.64,34.69 -8.46,8.63 -19.66,20.25 -27.45,29.47z"/>
  <path class="fil0" d="M1639.77 1589.09c-0.03,-0.31 -0.05,-0.56 -0.03,-0.77l9.11 19.68 -9.08 -18.91z"/>
  <path class="fil0" d="M1582.91 1506.2c-0.18,-1.72 -0.26,-3.15 -0.21,-4.31 8.39,10.14 19.49,23.76 27.22,34.39 7.21,11.76 16.75,27.52 23.41,39.61 -0.02,0.32 0,0.75 0.06,1.24 -6.7,-10.73 -15.75,-24.99 -23.17,-35.22 -8.03,-10.84 -22.1,-23.26 -27.31,-35.71z"/>
  <path class="fil0" d="M1508.52 1440.88c-0.34,-3.01 -0.46,-5.52 -0.37,-7.52 10.51,7.34 24.44,17.24 34.43,25.24 9.49,9.8 22.09,22.93 31.13,33.14 -0.04,1.26 0.04,2.84 0.25,4.75 -9.02,-7.89 -21.14,-18.33 -30.73,-25.52 -10.3,-9.16 -28.13,-17.98 -34.71,-30.09z"/>
  <path class="fil0" d="M1420.76 1394.65c-0.46,-4.11 -0.62,-7.54 -0.53,-10.27 12.06,4.36 28.11,10.33 39.84,15.52 11.25,7.55 26.19,17.74 37.09,25.8 -0.1,2.11 0.03,4.75 0.39,7.91 -10.84,-4.92 -25.35,-11.36 -36.53,-15.42 -11.98,-7.22 -27.99,-16.81 -40.26,-23.54z"/>
  <path class="fil0" d="M1323.81 1369.06c-0.57,-4.98 -0.76,-9.11 -0.62,-12.45 13.04,1.27 30.44,3.09 43.37,5.26 12.47,5.06 29.05,11.9 41.24,17.56 -0.11,2.83 0.07,6.36 0.54,10.59 -12.13,-1.82 -28.35,-4.1 -40.59,-4.98 -13.1,-4.99 -30.61,-11.57 -43.94,-15.98z"/>
  <path class="fil0" d="M1221.84 1365.71c-0.64,-5.58 -0.88,-10.24 -0.72,-13.96 13.49,-1.97 31.51,-4.48 45.1,-5.52 13.13,2.26 30.64,5.39 43.61,8.38 -0.13,3.4 0.08,7.62 0.65,12.71 -12.9,1.37 -30.1,3.39 -42.88,5.73 -13.69,-2.46 -31.96,-5.63 -45.76,-7.34z"/>
  <path class="fil0" d="M1118.99 1386.1c-0.67,-5.87 -0.92,-10.76 -0.75,-14.68 13.38,-5.34 31.28,-12.32 44.98,-16.73 13.25,-0.84 30.94,-1.82 44.2,-1.79 -0.16,3.78 0.08,8.47 0.72,14.11 -13.14,4.67 -30.63,11.08 -43.42,16.63 -13.74,0.44 -32.06,1.14 -45.73,2.46z"/>
  <path class="fil0" d="M1021.99 1430.45c-0.66,-5.81 -0.91,-10.65 -0.74,-14.52 12.05,-8.43 28.23,-19.54 40.81,-27.16 12.71,-4.17 29.72,-9.57 42.69,-12.81 -0.17,3.94 0.08,8.84 0.73,14.71 -12.74,7.98 -29.67,18.77 -41.89,27.52 -12.58,3.37 -29.31,7.99 -41.6,12.26z"/>
  <path class="fil0" d="M941.84 1493.38c-0.61,-5.39 -0.83,-9.89 -0.68,-13.49 9.68,-10.64 22.69,-24.74 32.99,-34.78 10.45,-6.8 24.49,-15.74 35.43,-21.71 -0.17,3.84 0.08,8.64 0.73,14.42 -10.63,10.41 -24.69,24.41 -34.71,35.4 -10.3,5.76 -23.96,13.58 -33.76,20.16z"/>
  <path class="fil0" d="M880.88 1570.76c-0.53,-4.68 -0.73,-8.61 -0.6,-11.75 7.08,-12.24 16.65,-28.51 24.39,-40.34 7.95,-8.93 18.67,-20.77 27.26,-29.07 -0.14,3.55 0.08,7.99 0.67,13.32 -8.2,12.14 -19.04,28.41 -26.62,40.96 -7.77,7.84 -18.03,18.42 -25.1,26.88z"/>
  <path class="fil0" d="M840.8 1658.63c-0.42,-3.75 -0.57,-6.86 -0.47,-9.36 4.26,-13.25 10.07,-30.91 15.03,-43.93 5.26,-10.59 12.39,-24.7 18.38,-34.9 -0.13,3.07 0.06,6.88 0.58,11.47 -5.58,13.21 -12.92,30.9 -17.88,44.38 -4.97,9.55 -11.47,22.39 -15.64,32.34z"/>
  <g>
  </g>
  <g style="clip-path:url(#id2)">
   <g id="_2549146866880">
    <path class="fil0" d="M823.3 1753c-0.27,-2.56 -0.39,-4.71 -0.32,-6.41l0.28 -4.5 1.8 -20.42 3.71 -25.81c2.25,-10.24 5.11,-23.91 7.91,-34 -0.1,2.41 0.07,5.39 0.46,8.99 -2.75,13.68 -6.33,31.93 -8.43,45.73 -1.91,10.88 -4.3,25.43 -5.41,36.42z"/>
   </g>
  </g>
  <path class="fil1" d="M822.82 1659.98l15.15 0 0 95.82 -15.15 0 0 -95.82zm0 0z"/>
  <path class="fil0" d="M1614.4 1551.51c-0.07,-0.23 -0.11,-0.46 -0.16,-0.68 -0.31,-1.39 -0.57,-2.64 -0.77,-3.76 7.05,10.4 16.31,24.34 22.61,35.2l12.77 25.73 -12.04 -22.2c-6.56,-10.4 -17.41,-23.06 -22.41,-34.29z"/>
  <path class="fil0" d="M1549.71 1486.45c-0.11,-0.52 -0.24,-1.04 -0.36,-1.57 -0.71,-3.17 -1.3,-6.05 -1.74,-8.6 9.26,7.37 21.53,17.33 30.2,25.4 8.55,10.38 19.86,24.28 27.96,35.02 0.23,1.32 0.52,2.78 0.9,4.43 0.06,0.26 0.13,0.53 0.19,0.79 -7.53,-7.68 -17.67,-17.83 -25.84,-24.81 -9.29,-9.31 -24.73,-19.27 -31.31,-30.66z"/>
  <path class="fil0" d="M1469.43 1438.67c-0.18,-0.8 -0.36,-1.58 -0.52,-2.35 -1.09,-4.75 -1.95,-9.06 -2.64,-12.9 10.94,4.26 25.5,10.1 36.05,15.23 10.71,8.72 24.93,20.42 35.28,29.54 0.49,2.75 1.11,5.82 1.89,9.23 0.11,0.55 0.24,1.1 0.37,1.67 -9.48,-4.6 -22.23,-10.61 -32.12,-14.3 -11.41,-7.96 -30.34,-14.73 -38.31,-26.12z"/>
  <path class="fil0" d="M1377.68 1409.39c-0.25,-1.01 -0.47,-2 -0.7,-2.98 -1.37,-6.07 -2.48,-11.55 -3.34,-16.45 12.08,1.09 28.19,2.72 40.15,4.77 12.32,6.77 28.71,15.86 40.75,23.09 0.7,4 1.61,8.48 2.73,13.43 0.18,0.79 0.36,1.61 0.56,2.44 -10.99,-1.45 -25.65,-3.23 -36.72,-3.7 -12.97,-6.31 -30.3,-14.68 -43.43,-20.6z"/>
  <path class="fil0" d="M1278.54 1399.92c-0.28,-1.16 -0.54,-2.31 -0.8,-3.45 -1.6,-7.05 -2.88,-13.41 -3.89,-19.11 12.71,-2.11 29.68,-4.8 42.51,-5.94 13.37,4.49 31.2,10.56 44.36,15.64 0.88,5.01 2.02,10.64 3.43,16.86 0.22,1.01 0.46,2.02 0.7,3.04 -11.96,1.76 -27.89,4.25 -39.67,6.92 -13.95,-4.36 -32.55,-10.09 -46.64,-13.96z"/>
  <path class="fil0" d="M1176.14 1411.52c-0.29,-1.27 -0.58,-2.52 -0.86,-3.76 -1.73,-7.63 -3.13,-14.55 -4.22,-20.71 12.83,-5.34 30,-12.34 43.15,-16.8 13.86,1.87 32.35,4.49 46.08,7.08 1.01,5.78 2.33,12.24 3.94,19.38 0.28,1.16 0.54,2.33 0.82,3.52 -12.42,4.93 -28.94,11.65 -41.02,17.38 -14.33,-2.05 -33.47,-4.69 -47.89,-6.09z"/>
  <path class="fil0" d="M1074.8 1445.34c-0.31,-1.29 -0.6,-2.57 -0.88,-3.83 -1.75,-7.77 -3.19,-14.8 -4.29,-21.1 12.38,-8.56 28.98,-19.87 41.87,-27.64 13.75,-1.12 32.13,-2.44 45.91,-2.68 1.09,6.21 2.51,13.15 4.25,20.85 0.27,1.23 0.57,2.49 0.86,3.77 -12.37,8.06 -28.81,18.91 -40.73,27.62 -14.11,0.63 -32.94,1.61 -46.99,3.01z"/>
  <path class="fil0" d="M985.62 1498.18c-0.29,-1.24 -0.57,-2.46 -0.85,-3.66 -1.67,-7.47 -3.04,-14.21 -4.11,-20.25 10.25,-10.87 24.02,-25.27 34.87,-35.55 12.29,-3.98 28.76,-9.12 41.31,-12.19 1.1,6.26 2.54,13.29 4.28,21.05 0.29,1.26 0.58,2.54 0.88,3.83 -11.09,10.64 -25.8,24.91 -36.34,36.1 -12.08,2.94 -28.17,6.94 -40.04,10.67z"/>
  <path class="fil0" d="M914.39 1565.26c-0.26,-1.11 -0.5,-2.21 -0.75,-3.3 -1.53,-6.72 -2.75,-12.79 -3.71,-18.21 7.84,-12.48 18.41,-29.05 26.87,-41.11 9.85,-6.27 23.08,-14.52 33.39,-19.95 1.06,5.95 2.41,12.63 4.07,20.03 0.28,1.19 0.56,2.41 0.85,3.63 -8.87,12.3 -20.62,28.77 -28.94,41.45 -9.68,4.96 -22.54,11.7 -31.78,17.46z"/>
  <path class="fil0" d="M862.87 1642.9c-0.21,-0.92 -0.43,-1.83 -0.62,-2.75 -1.27,-5.59 -2.31,-10.67 -3.09,-15.19 5.22,-13.43 12.32,-31.3 18.19,-44.47 7.15,-8.2 16.81,-19.04 24.66,-26.56 0.92,5.33 2.14,11.28 3.62,17.87 0.25,1.06 0.49,2.14 0.75,3.24 -6.46,13.25 -14.99,30.99 -20.92,44.5 -7.02,6.76 -16.28,15.94 -22.59,23.36z"/>
  <path class="fil0" d="M832.83 1727.46c-0.17,-0.68 -0.33,-1.38 -0.48,-2.06 -0.94,-4.18 -1.71,-7.96 -2.31,-11.35 2.44,-13.76 5.78,-32.09 8.86,-45.73 4.24,-9.69 10.04,-22.62 15.1,-31.93 0.78,4.4 1.77,9.31 3.01,14.75 0.19,0.88 0.39,1.77 0.6,2.67 -3.87,13.55 -8.97,31.63 -12.32,45.34 -4.04,8.35 -9.29,19.59 -12.46,28.31z"/>
  <g>
  </g>
  <g style="clip-path:url(#id3)">
   <g id="_2549146855648">
    <path class="fil0" d="M826.01 1815.26c-0.1,-0.4 -0.2,-0.81 -0.3,-1.22 -0.57,-2.52 -1.02,-4.8 -1.38,-6.83 -0.6,-13.48 -1.27,-31.46 -1.17,-44.95 1.14,-10.82 2.78,-25.28 4.75,-36 0.55,3.21 1.29,6.8 2.18,10.79 0.15,0.63 0.31,1.3 0.46,1.95 -1.13,13.22 -2.54,30.84 -3.08,44.09 -0.73,9.65 -1.56,22.52 -1.46,32.17z"/>
   </g>
  </g>
  <path class="fil1" d="M822.82 1722.47l10.98 0 0 95.82 -10.98 0 0 -95.82zm0 0z"/>
  <path class="fil0" d="M1640.91 1593.94c-0.18,-0.61 -0.34,-1.16 -0.47,-1.7l8.41 15.76 -7.94 -14.06z"/>
  <path class="fil0" d="M1589.35 1533.82c-0.99,-3.4 -1.9,-6.62 -2.7,-9.63 7.75,7.17 17.97,16.89 25.03,24.73 7,9.91 16.26,23.18 22.79,33.4 0.22,0.88 0.5,1.8 0.78,2.8 -5.76,-7.31 -13.58,-16.99 -20.07,-23.67 -7.63,-8.38 -20.08,-17.83 -25.83,-27.63z"/>
  <path class="fil0" d="M1519.77 1489.03c-1.75,-5.92 -3.32,-11.55 -4.71,-16.82 9.56,3.94 22.25,9.35 31.38,14.19 9.6,8.87 22.36,20.73 31.65,29.93 0.88,3.33 1.87,6.9 2.98,10.64 -7.91,-4.2 -18.57,-9.68 -26.92,-12.95 -10.25,-7.61 -26.95,-14.64 -34.38,-24.99z"/>
  <path class="fil0" d="M1436.12 1460.39c-2.39,-8.09 -4.54,-15.77 -6.43,-22.96 10.85,0.73 25.34,1.89 36.08,3.6 11.68,7.55 27.21,17.67 38.67,25.55 1.44,5.55 3.1,11.47 4.94,17.7 -9.63,-1.07 -22.52,-2.34 -32.2,-2.44 -12.27,-6.51 -28.66,-15.18 -41.06,-21.45z"/>
  <path class="fil0" d="M1342.43 1448.81c-2.9,-9.82 -5.5,-19.13 -7.8,-27.87 11.69,-2.4 27.31,-5.46 39.16,-6.94 13.18,5.9 30.74,13.86 43.76,20.16 1.95,7.44 4.17,15.36 6.62,23.71 -10.84,2.05 -25.29,4.93 -35.93,7.86 -13.7,-5.19 -32,-12.06 -45.81,-16.92z"/>
  <path class="fil0" d="M1140.92 1480.12c-3.4,-11.58 -6.47,-22.56 -9.19,-32.86 12.01,-8.46 28.09,-19.66 40.52,-27.46 14.47,1.57 33.75,3.76 48.14,5.96 2.6,9.9 5.55,20.44 8.82,31.56 -11.8,7.94 -27.49,18.63 -38.9,27.13 -14.8,-1.5 -34.54,-3.41 -49.39,-4.33z"/>
  <path class="fil0" d="M1043.69 1523.44c-3.37,-11.44 -6.41,-22.31 -9.1,-32.5 10.81,-10.99 25.31,-25.58 36.65,-36.02 14.08,-1.13 32.89,-2.54 47.03,-2.94 2.72,10.32 5.79,21.32 9.21,32.9 -11.54,10.55 -26.83,24.69 -37.88,35.71 -13.79,0.65 -32.18,1.6 -45.91,2.85z"/>
  <path class="fil0" d="M962.02 1579.88c-3.12,-10.63 -5.95,-20.74 -8.44,-30.22 8.61,-12.54 20.19,-29.2 29.32,-41.36 11.92,-3.37 27.85,-7.73 39.94,-10.35 2.67,10.13 5.7,20.93 9.03,32.31 -9.58,12.1 -22.29,28.33 -31.42,40.8 -11.57,2.4 -27.02,5.71 -38.43,8.82z"/>
  <path class="fil0" d="M898.44 1646c-2.73,-9.26 -5.19,-18.05 -7.35,-26.29 6.24,-13.41 14.68,-31.23 21.44,-44.36 9.35,-5.37 21.89,-12.38 31.64,-16.97 2.46,9.34 5.26,19.3 8.33,29.8 -7.42,12.95 -17.25,30.25 -24.24,43.43 -9.07,4.05 -21.14,9.57 -29.82,14.39z"/>
  <path class="fil0" d="M854.78 1718.51c-2.17,-7.37 -4.14,-14.37 -5.86,-20.94 3.71,-13.59 8.75,-31.7 12.97,-45.14 6.48,-7.07 15.25,-16.39 22.38,-22.77 2.13,8.05 4.52,16.63 7.19,25.66 -5.09,13.1 -11.83,30.58 -16.5,43.84 -6.28,5.55 -14.58,13.1 -20.18,19.35z"/>
  <path class="fil0" d="M832.91 1794.17c-1.48,-5.08 -2.84,-9.88 -4.01,-14.39 0.95,-13.16 2.31,-30.72 3.84,-43.84 3.36,-8.41 7.99,-19.61 12.21,-27.63 1.66,6.31 3.55,13.04 5.63,20.11 -2.6,12.62 -6.01,29.46 -8.15,42.15 -3.18,6.95 -7.25,16.31 -9.52,23.6z"/>
  <path class="fil0" d="M834.71 1869.73c-0.71,-2.42 -1.35,-4.73 -1.92,-6.9 -2.01,-12.12 -4.59,-28.33 -5.92,-40.55 0.05,-9.44 0.21,-22.06 1.12,-31.44 1.11,4.21 2.38,8.7 3.76,13.44 0.05,11.54 0.2,26.93 0.83,38.45 0.34,8.12 0.98,18.96 2.13,27z"/>
  <path class="fil0" d="M837.92 1884.15l-1.84 -6.92 -0.88 -3.51c0.49,1.84 1.03,3.79 1.63,5.86l3.38 12.51c-0.68,-2.37 -1.62,-5.55 -2.29,-7.94z"/>
  <path class="fil0" d="M1620.63 1572.78c-0.8,-2.38 -1.53,-4.67 -2.23,-6.88 6.07,6.78 14.03,15.96 19.37,23.33l11.08 18.77 -9.31 -13.27c-5.55,-6.68 -14.5,-14.45 -18.91,-21.95z"/>
  <path class="fil0" d="M1564.03 1535.3c-1.82,-5.45 -3.51,-10.74 -5.11,-15.8 8.04,3.47 18.72,8.27 26.28,12.64 8.03,7.93 18.67,18.54 26.4,26.76 0.8,2.6 1.68,5.3 2.6,8.12 -6.2,-3.56 -14.58,-8.2 -21.23,-10.81 -8.63,-6.34 -22.54,-12.32 -28.94,-20.91z"/>
  <path class="fil0" d="M1490.86 1511.8c-2.71,-8.18 -5.27,-16.09 -7.63,-23.68 9.5,0.3 22.2,0.85 31.62,2.13 10.53,7.18 24.54,16.78 34.88,24.2 1.69,5.42 3.51,11.07 5.45,16.91 -8.14,-0.45 -19.04,-0.88 -27.18,-0.36 -11.12,-5.82 -28.95,-9.71 -37.14,-19.2z"/>
  <path class="fil0" d="M1404.99 1502.64c-3.47,-10.42 -6.73,-20.51 -9.74,-30.17 10.57,-2.74 24.71,-6.27 35.45,-8.11 12.48,6.14 29.11,14.37 41.46,20.77 2.46,7.89 5.13,16.11 7.95,24.62 -9.59,2.59 -22.35,6.2 -31.67,9.59 -13.02,-5.08 -30.37,-11.8 -43.45,-16.7z"/>
  <path class="fil0" d="M1310.27 1508.24c-4.04,-12.13 -7.81,-23.83 -11.31,-35.06 11.21,-5.61 26.22,-13.02 37.76,-17.93 13.88,4.8 32.38,11.24 46.15,16.35 3.09,9.92 6.43,20.25 9.97,30.94 -10.54,5.44 -24.57,12.84 -34.77,18.9 -14.32,-4.04 -33.41,-9.41 -47.8,-13.2z"/>
  <path class="fil0" d="M1210.54 1528.92c-4.37,-13.13 -8.46,-25.81 -12.25,-38 11.44,-8.35 26.77,-19.4 38.62,-27.19 14.69,3.11 34.27,7.31 48.85,10.82 3.57,11.39 7.39,23.27 11.48,35.54 -11.09,8.08 -25.8,18.91 -36.52,27.46 -15.04,-2.72 -35.09,-6.27 -50.18,-8.63z"/>
  <path class="fil0" d="M1109.87 1565.02c-4.46,-13.4 -8.64,-26.33 -12.49,-38.73 11.21,-10.86 26.23,-25.28 37.86,-35.68 14.9,1.01 34.73,2.43 49.56,3.99 3.82,12.24 7.94,25.01 12.33,38.23 -11.21,10.4 -26.08,24.31 -36.95,35.05 -15.09,-1.01 -35.2,-2.29 -50.31,-2.86z"/>
  <path class="fil0" d="M944.64 1668.5c-3.84,-11.55 -7.43,-22.71 -10.77,-33.41 7.23,-13.06 16.94,-30.46 24.57,-43.3 11.36,-2.83 26.56,-6.48 38.09,-8.64 3.66,11.76 7.61,24.05 11.84,36.74 -8.28,12.62 -19.27,29.48 -27.22,42.3 -10.99,1.69 -25.64,4 -36.51,6.31z"/>
  <path class="fil0" d="M888.12 1729.08c-3.2,-9.64 -6.21,-18.95 -9,-27.88 4.95,-13.15 11.61,-30.65 16.95,-43.63 8.7,-4.48 20.37,-10.3 29.42,-14.03 3.27,10.51 6.8,21.45 10.56,32.78 -6.2,12.59 -14.43,29.39 -20.36,42.11 -8.36,2.95 -19.49,6.97 -27.57,10.65z"/>
  <path class="fil0" d="M851.69 1791.83c-2.4,-7.19 -4.64,-14.16 -6.72,-20.83 2.45,-12.58 5.81,-29.34 8.7,-41.84 5.67,-5.89 13.38,-13.66 19.69,-18.85 2.7,8.66 5.62,17.69 8.73,27.03 -3.99,11.93 -9.25,27.83 -12.93,39.86 -5.45,4.13 -12.66,9.78 -17.47,14.63z"/>
  <path class="fil0" d="M837.35 1853.99c-1.43,-4.32 -2.78,-8.51 -4.04,-12.53 -0.26,-11.4 -0.47,-26.65 -0.18,-38.08 2.38,-7.01 5.67,-16.37 8.96,-22.99 1.98,6.33 4.1,12.95 6.37,19.79 -1.57,10.69 -3.66,24.94 -4.85,35.68 -2.21,5.31 -4.99,12.52 -6.26,18.13z"/>
  <path class="fil0" d="M844.62 1906.04c-0.84,-2.6 -1.98,-6.09 -2.81,-8.71l-0.67 -2.18 -4.78 -18.11c-1.13,-7.86 -2.54,-18.39 -2.8,-26.33 1.14,3.63 2.36,7.42 3.66,11.36 0.98,8.93 2.33,20.86 3.89,29.73 1.04,4.26 2.15,10.06 3.51,14.24z"/>
  <path class="fil0" d="M1643.29 1601.08c-0.28,-0.75 -0.54,-1.5 -0.8,-2.21l6.36 9.13 -5.56 -6.92z"/>
  <path class="fil0" d="M1602.88 1574.47c-1.57,-4.31 -3.05,-8.52 -4.48,-12.64 6.25,2.83 14.55,6.77 20.29,10.51 5.86,6.17 13.64,14.42 19.18,20.86 0.4,1.19 0.84,2.41 1.28,3.65 -4.2,-2.75 -9.94,-6.31 -14.64,-8.09 -6.45,-4.34 -16.78,-8.22 -21.63,-14.29z"/>
  <path class="fil0" d="M1543.31 1559.89c-2.7,-7.5 -5.32,-14.87 -7.79,-22.02 7.91,-0.32 18.49,-0.6 26.36,0.08 8.79,5.93 20.51,13.84 29.17,19.96 1.57,4.52 3.22,9.17 4.94,13.94 -6.42,0.33 -15.02,0.96 -21.32,2.23 -9.39,-4.26 -21.93,-9.96 -31.36,-14.19z"/>
  <path class="fil0" d="M1468.29 1557.16c-3.71,-10.26 -7.27,-20.28 -10.66,-30.06 9.21,-3.22 21.53,-7.42 30.99,-9.83 11.23,5.47 26.2,12.79 37.35,18.41 2.62,7.53 5.35,15.26 8.2,23.17 -8.09,3.3 -18.85,7.88 -26.63,11.86 -11.76,-4.06 -27.47,-9.5 -39.25,-13.55z"/>
  <path class="fil0" d="M1286.43 1586.63c-5.04,-13.95 -9.88,-27.59 -14.47,-40.88 10.69,-8.41 25.03,-19.56 36.1,-27.5 14.42,3.76 33.64,8.8 48.01,12.77 4.16,12.09 8.56,24.51 13.15,37.17 -10.14,8.38 -23.6,19.64 -33.43,28.4 -14.79,-3.04 -34.54,-7.06 -49.36,-9.96z"/>
  <path class="fil0" d="M1089.19 1660.27c-5.26,-14.5 -10.29,-28.69 -15.07,-42.52 10.02,-12.16 23.47,-28.34 33.87,-40.19 15.1,0.72 35.25,1.76 50.33,2.88 4.85,14.02 9.94,28.4 15.25,43.08 -10.64,11.93 -24.79,27.85 -35.15,40.02 -14.76,-1.07 -34.45,-2.46 -49.23,-3.27z"/>
  <path class="fil0" d="M1004.35 1707.17c-4.88,-13.49 -9.55,-26.7 -14.01,-39.56 8.2,-12.71 19.17,-29.64 27.68,-42.13 13.23,-0.62 30.87,-1.34 44.12,-1.49 4.75,13.74 9.75,27.87 14.96,42.27 -9.08,12.35 -21.16,28.84 -30.01,41.35 -12.81,-0.26 -29.91,-0.55 -42.74,-0.44z"/>
  <path class="fil0" d="M935.24 1756.69c-4.23,-11.73 -8.3,-23.2 -12.18,-34.4 6.19,-12.61 14.5,-29.39 20.96,-41.87 10.89,-1.94 25.42,-4.41 36.39,-5.76 4.4,12.66 9,25.69 13.82,38.99 -7.31,12.09 -17.01,28.23 -24.13,40.44 -10.47,0.6 -24.43,1.48 -34.86,2.6z"/>
  <path class="fil0" d="M853.05 1854.73c-2.32,-6.42 -4.54,-12.7 -6.67,-18.82 1.6,-10.61 3.79,-24.75 5.75,-35.29 4.98,-4.4 11.76,-10.13 17.3,-13.79 2.96,8.56 6.08,17.35 9.32,26.33 -3.24,9.82 -7.53,22.92 -10.58,32.79 -4.67,2.38 -10.92,5.65 -15.12,8.78z"/>
  <path class="fil0" d="M844.38 1898.8c-1.11,-3.08 -2.18,-6.09 -3.19,-9.04 -1.06,-8.77 -2.38,-20.47 -2.88,-29.29 1.48,-5.26 3.6,-12.3 6.04,-17.18 1.97,5.71 4.05,11.58 6.21,17.57 -0.94,7.91 -2.18,18.46 -2.78,26.4 -1.37,3.33 -3.01,7.96 -3.4,11.54z"/>
  <path class="fil0" d="M847.72 1914.96c-0.72,-2.07 -1.7,-4.82 -2.41,-6.9l-3 -11.49c0.87,2.49 1.78,5.04 2.72,7.66 1.08,4.01 2.25,9.46 3.65,13.36l-0.96 -2.63z"/>
  <path class="fil0" d="M1630.4 1599.79c-1.08,-2.75 -2.1,-5.46 -3.1,-8.15 4.32,1.94 10.06,4.75 13.84,7.6l7.71 8.76 -5.24 -2.23c-3.97,-1.79 -10.24,-2.82 -13.21,-5.98z"/>
  <path class="fil0" d="M1586.44 1597.32c-2.44,-6.3 -4.8,-12.55 -7.09,-18.7 6.13,-1.14 14.37,-2.54 20.6,-2.71 6.65,3.97 15.52,9.27 22.13,13.36 1.17,3.15 2.39,6.36 3.65,9.61 -4.59,1.37 -10.7,3.41 -14.99,5.52 -7.29,-2.07 -17.04,-4.86 -24.3,-7.08z"/>
  <path class="fil0" d="M1524.42 1604.66c-3.63,-9.45 -7.18,-18.8 -10.61,-28.01 7.68,-3.92 17.98,-9.08 25.99,-12.3 9.54,4.02 22.25,9.36 31.78,13.38 2.44,6.59 5,13.26 7.6,20.01 -6.46,4.28 -14.99,10.09 -21.09,14.85 -10.1,-2.31 -23.58,-5.46 -33.67,-7.93z"/>
  <path class="fil0" d="M1447.79 1621.05c-4.66,-12.04 -9.18,-23.97 -13.54,-35.71 8.91,-6.47 20.84,-15.03 30.1,-20.99 11.9,3.86 27.75,9 39.61,12.84 3.58,9.59 7.26,19.32 11.05,29.15 -7.89,6.8 -18.37,15.95 -25.97,23.09 -12.38,-2.47 -28.89,-5.79 -41.25,-8.38z"/>
  <path class="fil0" d="M1359.97 1645.74c-5.4,-13.98 -10.66,-27.83 -15.74,-41.47 9.8,-8.72 22.9,-20.29 33.01,-28.64 13.68,3.48 31.91,8.12 45.58,11.63 4.48,12.05 9.12,24.27 13.88,36.6 -9.01,8.94 -20.99,20.93 -29.73,30.14 -14.11,-2.47 -32.9,-5.76 -47,-8.26z"/>
  <path class="fil0" d="M1164.78 1716.95c-5.96,-15.44 -11.76,-30.76 -17.38,-45.83 10.46,-12.06 24.46,-28.12 35.15,-40 15.5,1.86 36.16,4.35 51.64,6.45 5.52,14.87 11.26,29.97 17.14,45.22 -10.26,11.9 -23.94,27.8 -34.08,39.79 -15.74,-1.71 -36.72,-4 -52.47,-5.63z"/>
  <path class="fil0" d="M992.03 1799.59c-5.16,-13.33 -10.15,-26.54 -15,-39.53 7.29,-12.11 17.05,-28.23 24.51,-40.23 12.74,0.1 29.71,0.29 42.44,0.73 5.32,14.31 10.84,28.82 16.5,43.49 -8.23,11.72 -19.18,27.34 -27.34,39.1 -12.32,-1.15 -28.77,-2.65 -41.11,-3.56z"/>
  <path class="fil0" d="M927.67 1838.49c-4.3,-11.14 -8.48,-22.15 -12.51,-33.01 5.4,-11.2 12.62,-26.09 18.17,-37.22 10.34,-0.81 24.14,-1.79 34.5,-2.13 4.74,12.76 9.65,25.7 14.72,38.78 -6.58,10.63 -15.33,24.77 -21.89,35.4 -9.9,-0.67 -23.1,-1.52 -32.99,-1.82z"/>
  <path class="fil0" d="M881.22 1873.56c-3.2,-8.32 -6.33,-16.55 -9.34,-24.66 3.29,-9.73 7.73,-22.7 11.2,-32.39 7.52,-1.75 17.57,-3.95 25.21,-5.11 3.9,10.52 7.97,21.21 12.12,31.98 -4.72,9 -11.03,21.01 -15.77,30 -7.03,-0.1 -16.4,-0.2 -23.42,0.18z"/>
  <path class="fil0" d="M855.12 1903.17c-1.94,-5.01 -3.81,-9.96 -5.61,-14.84 0.94,-7.78 2.26,-18.14 3.51,-25.89 4.23,-2.67 10.01,-6.1 14.63,-8.02 2.87,7.7 5.84,15.51 8.89,23.42 -2.7,6.9 -6.28,16.12 -8.94,23.04 -3.77,0.49 -8.85,1.14 -12.48,2.29z"/>
  <path class="fil0" d="M851.41 1924.85l-1.17 -3.07 -1.01 -2.69c-1.24,-4.54 -3.01,-10.58 -3.84,-15.22 0.5,-3.28 1.32,-7.74 2.83,-10.7 1.64,4.41 3.35,8.9 5.09,13.42 -0.48,4.43 -1.13,10.32 -1.3,14.75 -0.37,1 -0.88,2.49 -0.6,3.51z"/>
  <path class="fil0" d="M1646.48 1609.33c-0.35,-0.81 -0.67,-1.63 -0.98,-2.42l3.35 1.09 -2.37 1.33z"/>
  <path class="fil0" d="M1621.01 1621.41c-1.89,-4.61 -3.75,-9.21 -5.55,-13.8 4.07,-2.04 9.55,-4.72 13.94,-5.98 4.01,1.47 9.35,3.44 13.38,4.79 0.54,1.33 1.08,2.67 1.61,3.99 -2.44,2.65 -5.6,6.28 -7.76,9.16 -4.66,0.78 -10.9,1.62 -15.62,1.84z"/>
  <path class="fil0" d="M1511.47 1668.93c-4.5,-10.99 -8.92,-21.96 -13.23,-32.86 7.45,-7.16 17.42,-16.66 25.2,-23.47 10.13,2.18 23.63,5.06 33.81,7.05 3.33,8.41 6.73,16.86 10.2,25.32 -6.22,7.75 -14.48,18.11 -20.47,26.04 -10.66,-0.5 -24.87,-1.24 -35.51,-2.08z"/>
  <path class="fil0" d="M1433.81 1701.64c-5.47,-13.3 -10.82,-26.59 -16.07,-39.83 8.65,-9.21 20.22,-21.44 29.12,-30.41 12.42,2.36 28.95,5.47 41.4,7.68 4.46,11.26 9.02,22.57 13.65,33.9 -7.63,9.68 -17.78,22.62 -25.24,32.43 -12.87,-1.04 -30.02,-2.47 -42.86,-3.77z"/>
  <path class="fil0" d="M1061.16 1854.17c-5.92,-14.43 -11.73,-28.87 -17.42,-43.22 8.31,-11.7 19.41,-27.31 27.79,-38.98 14.29,1.53 33.38,3.57 47.67,5.2 6.07,15.33 12.28,30.75 18.6,46.18 -9.03,11.52 -21.06,26.88 -30.11,38.39 -13.96,-2.28 -32.58,-5.3 -46.53,-7.57z"/>
  <path class="fil0" d="M923.41 1908.4c-4.1,-9.99 -8.12,-19.99 -12.06,-29.91 4.98,-8.91 11.6,-20.75 16.55,-29.67 9.88,0.68 23.04,1.64 32.9,2.6 4.84,12.19 9.77,24.45 14.78,36.7 -6.17,8.32 -14.4,19.38 -20.73,27.57 -9.43,-2.23 -21.99,-5.21 -31.44,-7.29z"/>
  <path class="fil0" d="M880.08 1924.69c-2.81,-6.87 -5.58,-13.74 -8.28,-20.57 2.96,-6.79 6.9,-15.84 9.86,-22.62 7,0.06 16.33,0.27 23.31,0.75 3.79,9.55 7.66,19.15 11.6,28.77 -4.41,6.05 -10.32,14.12 -14.95,20.02 -6.45,-1.96 -15.04,-4.55 -21.54,-6.35z"/>
  <path class="fil0" d="M857.35 1932.37c-1.33,-3.29 -2.67,-6.59 -3.97,-9.86 0.62,-4.3 1.53,-10.01 2.37,-14.27 3.67,-0.59 8.61,-1.18 12.32,-1.23 2.54,6.38 5.13,12.8 7.75,19.21 -2.41,3.43 -5.61,8.04 -8.27,11.28 -3.07,-1.53 -7.87,-2.61 -10.2,-5.13z"/>
  <path class="fil0" d="M855.1 1934.08c-1.64,-4.02 -1.64,-4.02 -2.44,-6.05l-0.66 -1.68c0.11,-0.57 0.27,-1.32 0.4,-1.89l0.26 -0.15c1.09,2.79 2.22,5.59 3.37,8.37 -0.23,0.55 -0.26,1.5 -0.76,1.79l-0.17 -0.39z"/>
  <path class="fil0" d="M1642.24 1628.75c-1.18,-2.75 -2.37,-5.54 -3.54,-8.32 2,-2.98 4.63,-6.96 6.9,-9.75l3.25 -2.68 -0.42 9.34c-1.5,3.6 -3.73,8.38 -6.19,11.41z"/>
  <path class="fil0" d="M1613.67 1663.8c-2.74,-6.31 -5.45,-12.69 -8.14,-19.09 4.08,-5.69 9.55,-13.28 13.9,-18.76 4.85,-0.62 11.36,-1.47 16.09,-2.74 1.39,3.29 2.79,6.56 4.19,9.82 -2.36,6.59 -5.52,15.39 -7.9,21.98 -5.29,2.92 -12.5,6.64 -18.14,8.79z"/>
  <path class="fil0" d="M1565.19 1704.19c-4.1,-9.47 -8.17,-19.01 -12.19,-28.59 5.86,-8.02 13.7,-18.68 19.79,-26.53 8.05,-0.01 18.78,-0.1 26.8,-0.62 2.88,6.86 5.79,13.69 8.72,20.44 -4.39,8.83 -10.22,20.57 -14.53,29.43 -8.53,1.98 -19.94,4.51 -28.59,5.87z"/>
  <path class="fil0" d="M1135.8 1914.63c-6.43,-14.84 -12.81,-29.81 -19.12,-44.83 9.13,-11.49 21.27,-26.82 30.36,-38.33 15.41,2.08 35.97,4.83 51.4,6.8 6.55,15.64 13.21,31.23 19.9,46.68 -9.6,11.55 -22.41,26.95 -32.11,38.42 -15.13,-2.55 -35.33,-5.99 -50.43,-8.74z"/>
  <path class="fil0" d="M1049.56 1940.08c-5.79,-13.36 -11.54,-26.82 -17.2,-40.36 7.88,-10.02 18.39,-23.41 26.17,-33.52 13.88,2.39 32.4,5.58 46.3,7.97 6.23,14.88 12.56,29.7 18.93,44.38 -8.63,9.88 -20.15,23.01 -28.96,32.7 -13.57,-3.31 -31.68,-7.75 -45.24,-11.17z"/>
  <path class="fil0" d="M975.69 1955.74c-4.85,-11.15 -9.63,-22.39 -14.37,-33.69 6.45,-8.12 15.01,-18.97 21.29,-27.22 11.85,2.45 27.65,5.77 39.48,8.31 5.58,13.28 11.21,26.5 16.89,39.6 -7.42,7.78 -17.33,18.11 -25.01,25.63 -11.49,-3.78 -26.82,-8.81 -38.28,-12.63z"/>
  <path class="fil0" d="M917.09 1961.14c-3.61,-8.33 -7.19,-16.73 -10.72,-25.16 4.77,-5.81 11.06,-13.6 15.6,-19.59 9.33,2.36 21.76,5.55 31.07,8.02 4.61,10.94 9.24,21.84 13.93,32.65 -5.97,5.34 -13.96,12.43 -20.26,17.38 -8.9,-3.97 -22.8,-6.35 -29.62,-13.3z"/>
  <path class="fil0" d="M876.72 1955.87c-2.18,-5.01 -4.35,-10.06 -6.46,-15.14 2.81,-3.14 6.49,-7.42 9.04,-10.77 6.35,2.13 14.81,4.98 21.13,7.19 3.37,8.03 6.77,16 10.2,23.93 -4.26,2.63 -9.99,6.13 -14.6,8.12 -5.84,-3.94 -14.92,-7.85 -19.31,-13.33z"/>
  <path class="fil0" d="M858.15 1941.26l-0.44 -1.01c-0.57,-1.34 -1.34,-3.13 -1.89,-4.46 0.52,-0.25 1.19,-0.75 1.51,-1.24 2.88,1.87 6.74,4.31 9.69,6.07 1.93,4.61 3.89,9.18 5.85,13.72 -2.44,-0.21 -5.82,-0.72 -7.94,-1.95 -2.11,-3.29 -5.16,-7.57 -6.78,-11.13z"/>
  <path class="fil0" d="M1650.06 1617.58c-0.35,-0.75 -0.7,-1.53 -1.05,-2.31l-0.16 -7.27 1.21 9.58z"/>
  <path class="fil0" d="M1641.4 1668.37c-1.99,-4.29 -3.97,-8.7 -5.96,-13.16 2.05,-6.74 4.79,-15.74 6.79,-22.51 2.24,-3.56 5.09,-8.49 6.33,-12.51 0.57,1.27 1.15,2.55 1.72,3.79 0.04,7.76 0,18.1 -0.29,25.84 -2.23,5.71 -5.37,13.33 -8.59,18.55z"/>
  <g>
  </g>
  <g style="clip-path:url(#id4)">
   <g id="_2585421540592">
    <path class="fil0" d="M910.47 1994.68c-2.96,-6.43 -5.93,-12.97 -8.89,-19.62 4.77,-2.09 11.07,-5.05 15.51,-7.77 8.85,4.3 20.65,10.01 29.56,14.19 4.13,9.31 8.28,18.48 12.43,27.46 -6.09,1.98 -14.26,4.52 -20.57,5.63 -8.46,-5.88 -21.53,-11.88 -28.04,-19.89z"/>
   </g>
  </g>
  <path class="fil1" d="M900.46 1964.1l62.49 0 0 50.57 -62.49 0 0 -50.57zm0 0z"/>
  <path class="fil0" d="M871.95 1965.96c-1.43,-3.08 -2.85,-6.22 -4.28,-9.42 2.59,1.07 6.21,2.34 9,2.36 5.71,4.39 13.37,10.2 19.23,14.4 2.77,6.2 5.55,12.33 8.32,18.32 -4.57,-1.07 -10.69,-2.71 -14.89,-4.8 -5.36,-6.13 -13.18,-13.88 -17.38,-20.86z"/>
  <path class="fil0" d="M860.65 1946.9c-0.53,-1.22 -1.27,-2.83 -1.8,-4.03 1.75,3.1 3.92,7.37 5.92,10.31 1.22,2.71 2.43,5.38 3.63,7.99l-5.39 -9.12c-0.71,-1.55 -1.66,-3.6 -2.36,-5.15z"/>
  <g>
  </g>
  <g style="clip-path:url(#id5)">
   <g id="_2585421594544">
    <path class="fil0" d="M1654.66 1655.63c-1.11,-2.23 -2.26,-4.6 -3.47,-7.13l-0.01 -0.06c-0.07,-7.93 -0.16,-18.49 -0.62,-26.4l-1.71 -14.04 4.49 19.77c0.73,8.33 1.58,19.5 1.32,27.86z"/>
   </g>
  </g>
  <path class="fil1" d="M1646.2 1605.82l10.89 0 0 49.99 -10.89 0 0 -49.99zm0 0z"/>
  <path class="fil0" d="M1653.41 1624.34c-0.28,-0.51 -0.57,-1.06 -0.88,-1.65l-3.68 -14.69 4.56 16.34z"/>
  <g>
  </g>
  <g style="clip-path:url(#id6)">
   <g id="_2585421591712">
    <path class="fil0" d="M1655.75 1628.06c-0.16,-0.19 -0.36,-0.45 -0.55,-0.75l-6.35 -19.31 6.9 20.06z"/>
   </g>
  </g>
  <path class="fil1" d="M1646.2 1605.82l10.89 0 0 24.99 -10.89 0 0 -24.99zm0 0z"/>
  <path class="fil0" d="M1145.95 1785.63c-4.66,0 -9.15,-0.65 -13.48,-1.95 -4.34,-1.33 -7.79,-3.09 -10.35,-5.27l3.91 -8.73c2.47,1.96 5.5,3.57 9.11,4.82 3.6,1.22 7.2,1.82 10.81,1.82 4.46,0 7.81,-0.71 10.02,-2.14 2.22,-1.44 3.32,-3.32 3.32,-5.67 0,-1.72 -0.63,-3.16 -1.88,-4.29 -1.23,-1.13 -2.79,-1.99 -4.69,-2.61 -1.87,-0.65 -4.46,-1.38 -7.75,-2.21 -4.6,-1.08 -8.33,-2.17 -11.2,-3.26 -2.83,-1.07 -5.25,-2.76 -7.29,-5.07 -2.05,-2.35 -3.06,-5.5 -3.06,-9.51 0,-3.33 0.92,-6.38 2.74,-9.11 1.82,-2.74 4.56,-4.9 8.2,-6.51 3.65,-1.59 8.11,-2.41 13.41,-2.41 3.68,0 7.31,0.49 10.87,1.43 3.55,0.91 6.64,2.22 9.25,3.91l-3.59 8.72c-2.65,-1.56 -5.4,-2.73 -8.26,-3.51 -2.87,-0.82 -5.65,-1.24 -8.33,-1.24 -4.43,0 -7.73,0.77 -9.9,2.28 -2.18,1.48 -3.25,3.45 -3.25,5.92 0,1.74 0.6,3.16 1.82,4.23 1.25,1.09 2.83,1.96 4.75,2.61 1.9,0.62 4.49,1.33 7.75,2.14 4.46,1.05 8.13,2.14 11,3.26 2.9,1.14 5.37,2.85 7.42,5.14 2.03,2.31 3.06,5.41 3.06,9.31 0,3.35 -0.91,6.36 -2.73,9.05 -1.79,2.7 -4.53,4.85 -8.21,6.44 -3.69,1.6 -8.18,2.41 -13.47,2.41zm0 0z"/>
  <path class="fil0" d="M1204.6 1724.44c5.24,0 9.8,0.88 13.67,2.61 3.91,1.69 6.87,4.15 8.92,7.35 2.09,3.22 3.13,7.03 3.13,11.46 0,4.39 -1.04,8.2 -3.13,11.46 -2.05,3.25 -5.01,5.76 -8.92,7.48 -3.87,1.69 -8.43,2.54 -13.67,2.54l-13.6 0 0 17.45 -11.2 0 0 -60.35 24.8 0zm-0.52 33.46c4.9,0 8.61,-1.04 11.13,-3.12 2.51,-2.09 3.78,-5.05 3.78,-8.92 0,-3.81 -1.27,-6.77 -3.78,-8.85 -2.52,-2.09 -6.23,-3.13 -11.13,-3.13l-13.08 0 0 24.02 13.08 0zm0 0z"/>
  <path class="fil0" d="M1296.17 1784.79l-0.13 -40.04 -19.86 33.14 -4.94 0 -19.86 -32.62 0 39.52 -10.67 0 0 -60.35 9.18 0 24.02 39.97 23.5 -39.97 9.24 0 0.06 60.35 -10.54 0zm0 0z"/>
  <path class="fil0" d="M1343.45 1724.44l11.2 0 0 60.35 -11.2 0 0 -60.35zm0 0z"/>
  <path class="fil0" d="M1422.88 1724.44l0 60.35 -9.24 0 -33.33 -40.88 0 40.88 -11.06 0 0 -60.35 9.17 0 33.33 40.88 0 -40.88 11.13 0zm0 0z"/>
  <path class="fil0" d="M1449.64 1733.88l-20.05 0 0 -9.44 51.23 0 0 9.44 -19.99 0 0 50.91 -11.19 0 0 -50.91zm0 0z"/>
  <path class="fil0" d="M1532.85 1775.41l0 9.38 -45.24 0 0 -60.35 44.07 0 0 9.38 -32.88 0 0 15.68 29.16 0 0 9.25 -29.16 0 0 16.66 34.05 0zm0 0z"/>
  <path class="fil0" d="M1584.89 1753.93l10.61 0 0 24.02c-3.13,2.48 -6.76,4.4 -10.88,5.73 -4.13,1.3 -8.38,1.95 -12.75,1.95 -6.17,0 -11.72,-1.31 -16.67,-3.97 -4.95,-2.68 -8.83,-6.38 -11.65,-11.06 -2.83,-4.72 -4.23,-10.06 -4.23,-16.02 0,-5.89 1.4,-11.21 4.23,-15.95 2.82,-4.72 6.7,-8.41 11.65,-11.06 4.98,-2.69 10.58,-4.04 16.8,-4.04 5.07,0 9.66,0.85 13.8,2.54 4.16,1.66 7.64,4.08 10.48,7.29l-7.1 6.9c-4.6,-4.59 -10.15,-6.9 -16.66,-6.9 -4.27,0 -8.04,0.9 -11.33,2.67 -3.3,1.79 -5.89,4.3 -7.75,7.55 -1.87,3.22 -2.8,6.88 -2.8,11 0,4.04 0.93,7.67 2.8,10.87 1.86,3.23 4.45,5.76 7.75,7.62 3.29,1.82 7.05,2.73 11.26,2.73 4.72,0 8.87,-1.01 12.44,-3.06l0 -18.81zm0 0z"/>
  <path class="fil0" d="M1648 1784.79l-12.3 -17.71c-0.52,0.1 -1.3,0.13 -2.35,0.13l-13.6 0 0 17.58 -11.2 0 0 -60.35 24.8 0c5.25,0 9.8,0.88 13.67,2.61 3.91,1.69 6.87,4.15 8.92,7.35 2.09,3.22 3.13,7.03 3.13,11.46 0,4.56 -1.11,8.49 -3.32,11.78 -2.22,3.26 -5.39,5.7 -9.51,7.29l13.87 19.86 -12.11 0zm-0.26 -38.93c0,-3.81 -1.27,-6.77 -3.78,-8.85 -2.52,-2.09 -6.23,-3.13 -11.13,-3.13l-13.08 0 0 24.09 13.08 0c4.9,0 8.61,-1.04 11.13,-3.13 2.51,-2.11 3.78,-5.11 3.78,-8.98zm0 0z"/>
  <path class="fil0" d="M1709.01 1770.79l-30.2 0 -5.93 14 -11.58 0 27.21 -60.35 11 0 27.27 60.35 -11.71 0 -6.06 -14zm-3.71 -8.79l-11.39 -26.36 -11.26 26.36 22.65 0zm0 0z"/>
  <path class="fil0" d="M1732.78 1724.44l11.19 0 0 50.84 31.58 0 0 9.51 -42.77 0 0 -60.35zm0 0z"/>
 </g>
</svg>
