<svg xmlns="http://www.w3.org/2000/svg" xmlns:xlink="http://www.w3.org/1999/xlink" width="500" zoomAndPan="magnify" viewBox="0 0 375 374.999991" height="500" preserveAspectRatio="xMidYMid meet" version="1.2"><defs><clipPath id="d158ff53ba"><path d="M 195 88.136719 L 217 88.136719 L 217 93 L 195 93 Z M 195 88.136719 "/></clipPath><clipPath id="463844838f"><path d="M 170 88.136719 L 193 88.136719 L 193 91 L 170 91 Z M 170 88.136719 "/></clipPath><clipPath id="b109d454e8"><path d="M 87.363281 165 L 91 165 L 91 188 L 87.363281 188 Z M 87.363281 165 "/></clipPath><clipPath id="aa62381a4f"><path d="M 87.363281 180 L 90 180 L 90 203 L 87.363281 203 Z M 87.363281 180 "/></clipPath><clipPath id="819099219f"><path d="M 106 238 L 121 238 L 121 250.136719 L 106 250.136719 Z M 106 238 "/></clipPath><clipPath id="259e82bf43"><path d="M 285 152 L 287.613281 152 L 287.613281 164 L 285 164 Z M 285 152 "/></clipPath><clipPath id="e304076836"><path d="M 285 152 L 287.613281 152 L 287.613281 158 L 285 158 Z M 285 152 "/></clipPath></defs><g id="80edc5e4e3"><path style=" stroke:none;fill-rule:nonzero;fill:#234572;fill-opacity:1;" d="M 146.171875 98.8125 C 146.347656 98.246094 146.605469 97.886719 146.945312 97.730469 L 151.5 95.746094 C 155.777344 94.199219 161.539062 92.28125 165.917969 91.050781 L 168.070312 90.558594 C 167.707031 90.699219 167.433594 91.058594 167.253906 91.648438 C 163.96875 92.789062 159.601562 94.347656 156.402344 95.703125 C 153.3125 96.554688 149.195312 97.734375 146.171875 98.8125 "/><path style=" stroke:none;fill-rule:nonzero;fill:#234572;fill-opacity:1;" d="M 124.839844 112.105469 C 124.96875 111.683594 125.148438 111.378906 125.375 111.195312 L 125.453125 111.132812 C 134.0625 104.703125 134.226562 104.582031 139.070312 101.804688 L 143.847656 99.234375 C 143.519531 99.394531 143.273438 99.75 143.105469 100.296875 C 140.140625 102.1875 136.207031 104.738281 133.375 106.8125 C 130.773438 108.332031 127.316406 110.390625 124.839844 112.105469 "/><path style=" stroke:none;fill-rule:nonzero;fill:#234572;fill-opacity:1;" d="M 283.554688 147.65625 L 283.644531 147.71875 L 285.636719 152.523438 L 283.554688 147.65625 "/><path style=" stroke:none;fill-rule:nonzero;fill:#234572;fill-opacity:1;" d="M 277.066406 136.355469 C 277.101562 136.25 277.152344 136.183594 277.214844 136.160156 C 278.914062 139.023438 281.148438 142.863281 282.671875 145.820312 L 285.636719 152.523438 L 282.554688 145.980469 C 280.957031 143.066406 278.800781 139.191406 277.066406 136.355469 "/><path style=" stroke:none;fill-rule:nonzero;fill:#234572;fill-opacity:1;" d="M 261.15625 117.359375 C 261.234375 117.117188 261.347656 116.96875 261.496094 116.910156 C 263.800781 119.203125 266.851562 122.28125 269.019531 124.703125 C 270.972656 127.265625 273.554688 130.703125 275.378906 133.355469 C 275.304688 133.386719 275.242188 133.464844 275.207031 133.589844 C 273.25 131.089844 270.617188 127.765625 268.503906 125.394531 C 266.339844 122.949219 263.433594 119.703125 261.15625 117.359375 "/><path style=" stroke:none;fill-rule:nonzero;fill:#234572;fill-opacity:1;" d="M 241.546875 102.910156 C 241.660156 102.546875 241.832031 102.324219 242.054688 102.234375 C 244.835938 103.90625 248.527344 106.15625 251.203125 107.984375 C 253.613281 109.949219 256.804688 112.597656 259.105469 114.6875 C 258.945312 114.75 258.824219 114.910156 258.746094 115.171875 C 256.265625 113.308594 252.933594 110.847656 250.335938 109.15625 C 247.730469 107.238281 244.242188 104.703125 241.546875 102.910156 "/><path style=" stroke:none;fill-rule:nonzero;fill:#234572;fill-opacity:1;" d="M 219.242188 93.421875 C 219.382812 92.957031 219.597656 92.671875 219.886719 92.558594 C 223.003906 93.550781 227.15625 94.90625 230.210938 96.082031 C 232.949219 97.398438 236.589844 99.183594 239.246094 100.652344 C 239.015625 100.746094 238.839844 100.980469 238.722656 101.355469 C 235.84375 100.179688 231.988281 98.640625 229.039062 97.660156 C 226.121094 96.335938 222.222656 94.59375 219.242188 93.421875 "/><g clip-rule="nonzero" clip-path="url(#d158ff53ba)"><path style=" stroke:none;fill-rule:nonzero;fill:#234572;fill-opacity:1;" d="M 195.234375 89.304688 C 195.402344 88.765625 195.652344 88.433594 195.984375 88.300781 C 199.21875 88.558594 203.53125 88.917969 206.742188 89.371094 L 207.1875 89.441406 C 210.082031 90.046875 213.941406 90.886719 216.792969 91.675781 C 216.5 91.789062 216.277344 92.082031 216.132812 92.558594 C 212.984375 92.109375 208.785156 91.546875 205.613281 91.316406 C 202.515625 90.648438 198.371094 89.785156 195.234375 89.304688 "/></g><g clip-rule="nonzero" clip-path="url(#463844838f)"><path style=" stroke:none;fill-rule:nonzero;fill:#234572;fill-opacity:1;" d="M 170.53125 90.96875 C 170.710938 90.386719 170.984375 90.023438 171.34375 89.886719 L 175.601562 89.152344 C 178.078125 88.890625 181.375 88.445312 183.859375 88.28125 L 186.90625 88.132812 L 192.738281 88.167969 C 192.398438 88.300781 192.144531 88.636719 191.976562 89.183594 C 188.695312 89.507812 184.320312 89.980469 181.070312 90.53125 C 177.90625 90.585938 173.683594 90.699219 170.53125 90.96875 "/></g><path style=" stroke:none;fill-rule:nonzero;fill:#234572;fill-opacity:1;" d="M 107.902344 129.609375 C 107.980469 129.351562 108.078125 129.144531 108.199219 128.984375 C 109.84375 126.972656 111.976562 124.242188 113.707031 122.300781 C 116.382812 119.546875 119.992188 115.910156 122.832031 113.328125 C 122.621094 113.511719 122.453125 113.804688 122.328125 114.207031 C 119.925781 116.652344 116.742188 119.945312 114.492188 122.535156 C 112.460938 124.605469 109.773438 127.394531 107.902344 129.609375 "/><path style=" stroke:none;fill-rule:nonzero;fill:#234572;fill-opacity:1;" d="M 283.457031 147.984375 C 283.449219 147.910156 283.445312 147.851562 283.449219 147.800781 L 285.636719 152.523438 L 283.457031 147.984375 "/><path style=" stroke:none;fill-rule:nonzero;fill:#234572;fill-opacity:1;" d="M 269.808594 128.089844 C 269.765625 127.675781 269.746094 127.332031 269.757812 127.054688 C 271.773438 129.488281 274.4375 132.757812 276.292969 135.308594 C 278.023438 138.132812 280.3125 141.914062 281.910156 144.816406 C 281.90625 144.894531 281.910156 144.996094 281.925781 145.113281 C 280.316406 142.539062 278.144531 139.117188 276.363281 136.660156 C 274.4375 134.058594 271.058594 131.078125 269.808594 128.089844 "/><path style=" stroke:none;fill-rule:nonzero;fill:#234572;fill-opacity:1;" d="M 251.953125 112.410156 C 251.871094 111.6875 251.84375 111.085938 251.863281 110.605469 C 254.386719 112.367188 257.730469 114.742188 260.128906 116.664062 C 262.40625 119.015625 265.429688 122.167969 267.601562 124.617188 C 267.589844 124.921875 267.609375 125.300781 267.660156 125.757812 C 265.496094 123.863281 262.585938 121.359375 260.285156 119.632812 C 257.8125 117.433594 253.53125 115.316406 251.953125 112.410156 "/><path style=" stroke:none;fill-rule:nonzero;fill:#234572;fill-opacity:1;" d="M 230.886719 101.3125 C 230.777344 100.328125 230.738281 99.503906 230.761719 98.847656 C 233.65625 99.894531 237.507812 101.328125 240.324219 102.574219 C 243.023438 104.386719 246.609375 106.832031 249.226562 108.765625 C 249.203125 109.273438 249.234375 109.90625 249.320312 110.664062 C 246.71875 109.484375 243.234375 107.9375 240.550781 106.964844 C 237.675781 105.230469 233.832031 102.929688 230.886719 101.3125 "/><path style=" stroke:none;fill-rule:nonzero;fill:#234572;fill-opacity:1;" d="M 207.617188 95.171875 C 207.480469 93.976562 207.433594 92.984375 207.46875 92.183594 C 210.597656 92.488281 214.773438 92.925781 217.878906 93.445312 C 220.871094 94.660156 224.851562 96.300781 227.777344 97.660156 C 227.75 98.339844 227.792969 99.1875 227.90625 100.203125 C 224.996094 99.765625 221.101562 99.21875 218.164062 99.007812 C 215.019531 97.808594 210.816406 96.230469 207.617188 95.171875 "/><path style=" stroke:none;fill-rule:nonzero;fill:#234572;fill-opacity:1;" d="M 183.140625 94.367188 C 182.988281 93.027344 182.929688 91.910156 182.96875 91.015625 C 186.207031 90.542969 190.53125 89.941406 193.792969 89.691406 C 196.945312 90.234375 201.148438 90.984375 204.261719 91.703125 C 204.230469 92.519531 204.28125 93.53125 204.417969 94.753906 C 201.320312 95.082031 197.191406 95.566406 194.125 96.128906 C 190.839844 95.539062 186.453125 94.777344 183.140625 94.367188 "/><path style=" stroke:none;fill-rule:nonzero;fill:#234572;fill-opacity:1;" d="M 158.453125 99.261719 C 158.292969 97.851562 158.234375 96.679688 158.273438 95.738281 C 161.484375 94.457031 165.78125 92.78125 169.070312 91.722656 C 172.25 91.519531 176.496094 91.285156 179.679688 91.292969 C 179.640625 92.199219 179.699219 93.324219 179.851562 94.679688 C 176.699219 95.800781 172.5 97.339844 169.429688 98.671875 C 166.132812 98.777344 161.734375 98.945312 158.453125 99.261719 "/><path style=" stroke:none;fill-rule:nonzero;fill:#234572;fill-opacity:1;" d="M 135.171875 109.90625 C 135.011719 108.511719 134.953125 107.351562 134.992188 106.421875 C 137.886719 104.398438 141.769531 101.730469 144.789062 99.902344 C 147.839844 98.902344 151.921875 97.605469 155.035156 96.828125 C 154.996094 97.773438 155.054688 98.949219 155.210938 100.359375 C 152.152344 102.273438 148.089844 104.863281 145.15625 106.964844 C 142.136719 107.773438 138.121094 108.882812 135.171875 109.90625 "/><path style=" stroke:none;fill-rule:nonzero;fill:#234572;fill-opacity:1;" d="M 115.933594 125.011719 C 115.785156 123.71875 115.734375 122.636719 115.769531 121.773438 C 118.09375 119.21875 121.214844 115.835938 123.6875 113.425781 C 126.195312 111.792969 129.566406 109.648438 132.191406 108.214844 C 132.152344 109.136719 132.210938 110.289062 132.367188 111.675781 C 129.816406 114.175781 126.441406 117.535156 124.035156 120.171875 C 121.5625 121.554688 118.285156 123.433594 115.933594 125.011719 "/><path style=" stroke:none;fill-rule:nonzero;fill:#234572;fill-opacity:1;" d="M 101.300781 143.585938 C 101.171875 142.460938 101.125 141.519531 101.15625 140.765625 C 102.855469 137.828125 105.152344 133.921875 107.011719 131.082031 C 108.917969 128.9375 111.492188 126.097656 113.554688 124.105469 C 113.519531 124.957031 113.574219 126.023438 113.714844 127.300781 C 111.746094 130.214844 109.144531 134.121094 107.324219 137.132812 C 105.460938 139.015625 102.996094 141.554688 101.300781 143.585938 "/><path style=" stroke:none;fill-rule:nonzero;fill:#234572;fill-opacity:1;" d="M 91.679688 164.675781 C 91.578125 163.777344 91.542969 163.03125 91.566406 162.429688 C 92.589844 159.25 93.984375 155.011719 95.175781 151.886719 C 96.4375 149.34375 98.148438 145.957031 99.585938 143.507812 C 99.554688 144.246094 99.601562 145.160156 99.726562 146.261719 C 98.386719 149.433594 96.625 153.679688 95.433594 156.914062 C 94.242188 159.207031 92.679688 162.289062 91.679688 164.675781 "/><g clip-rule="nonzero" clip-path="url(#b109d454e8)"><path style=" stroke:none;fill-rule:nonzero;fill:#234572;fill-opacity:1;" d="M 87.480469 187.328125 C 87.414062 186.714844 87.386719 186.199219 87.402344 185.789062 L 87.46875 184.710938 L 87.902344 179.808594 L 88.792969 173.613281 C 89.332031 171.15625 90.019531 167.875 90.691406 165.453125 C 90.667969 166.03125 90.707031 166.746094 90.800781 167.609375 C 90.140625 170.894531 89.28125 175.273438 88.777344 178.585938 C 88.320312 181.199219 87.746094 184.691406 87.480469 187.328125 "/></g><path style=" stroke:none;fill-rule:nonzero;fill:#234572;fill-opacity:1;" d="M 277.367188 138.964844 C 277.351562 138.910156 277.339844 138.855469 277.328125 138.800781 C 277.253906 138.46875 277.191406 138.167969 277.144531 137.898438 C 278.835938 140.394531 281.058594 143.742188 282.570312 146.347656 L 285.636719 152.523438 L 282.746094 147.195312 C 281.171875 144.699219 278.566406 141.660156 277.367188 138.964844 "/><path style=" stroke:none;fill-rule:nonzero;fill:#234572;fill-opacity:1;" d="M 261.839844 123.347656 C 261.8125 123.222656 261.78125 123.097656 261.753906 122.972656 C 261.582031 122.210938 261.441406 121.519531 261.335938 120.90625 C 263.558594 122.675781 266.503906 125.066406 268.585938 127.003906 C 270.636719 129.496094 273.351562 132.832031 275.296875 135.410156 C 275.351562 135.726562 275.421875 136.078125 275.511719 136.472656 C 275.527344 136.535156 275.542969 136.601562 275.558594 136.664062 C 273.75 134.820312 271.316406 132.382812 269.355469 130.707031 C 267.125 128.472656 263.417969 126.082031 261.839844 123.347656 "/><path style=" stroke:none;fill-rule:nonzero;fill:#234572;fill-opacity:1;" d="M 242.570312 111.878906 C 242.527344 111.6875 242.484375 111.5 242.445312 111.316406 C 242.183594 110.175781 241.976562 109.140625 241.8125 108.21875 C 244.4375 109.242188 247.933594 110.644531 250.464844 111.875 C 253.035156 113.96875 256.449219 116.777344 258.933594 118.964844 C 259.050781 119.625 259.199219 120.363281 259.386719 121.179688 C 259.414062 121.3125 259.445312 121.445312 259.476562 121.582031 C 257.199219 120.476562 254.140625 119.035156 251.765625 118.148438 C 249.027344 116.238281 244.484375 114.613281 242.570312 111.878906 "/><path style=" stroke:none;fill-rule:nonzero;fill:#234572;fill-opacity:1;" d="M 220.546875 104.851562 C 220.488281 104.609375 220.433594 104.371094 220.378906 104.136719 C 220.050781 102.679688 219.785156 101.363281 219.578125 100.1875 C 222.476562 100.449219 226.34375 100.839844 229.214844 101.332031 C 232.171875 102.957031 236.105469 105.140625 238.996094 106.875 C 239.164062 107.835938 239.382812 108.910156 239.652344 110.097656 C 239.695312 110.289062 239.738281 110.484375 239.785156 110.683594 C 237.148438 110.335938 233.628906 109.910156 230.972656 109.796875 C 227.859375 108.28125 223.699219 106.273438 220.546875 104.851562 "/><path style=" stroke:none;fill-rule:nonzero;fill:#234572;fill-opacity:1;" d="M 196.75 102.578125 C 196.683594 102.300781 196.621094 102.023438 196.558594 101.75 C 196.175781 100.058594 195.867188 98.53125 195.625 97.164062 C 198.675781 96.65625 202.75 96.011719 205.828125 95.738281 C 209.039062 96.816406 213.316406 98.273438 216.476562 99.492188 C 216.6875 100.695312 216.960938 102.046875 217.300781 103.539062 C 217.351562 103.78125 217.410156 104.023438 217.46875 104.269531 C 214.597656 104.691406 210.773438 105.289062 207.945312 105.929688 C 204.597656 104.882812 200.132812 103.507812 196.75 102.578125 "/><path style=" stroke:none;fill-rule:nonzero;fill:#234572;fill-opacity:1;" d="M 172.171875 105.363281 C 172.101562 105.058594 172.03125 104.757812 171.964844 104.460938 C 171.550781 102.628906 171.214844 100.96875 170.953125 99.488281 C 174.03125 98.207031 178.152344 96.527344 181.308594 95.457031 C 184.636719 95.90625 189.074219 96.535156 192.371094 97.15625 C 192.613281 98.542969 192.929688 100.09375 193.316406 101.808594 C 193.382812 102.085938 193.445312 102.367188 193.511719 102.652344 C 190.53125 103.835938 186.566406 105.449219 183.667969 106.824219 C 180.226562 106.332031 175.632812 105.699219 172.171875 105.363281 "/><path style=" stroke:none;fill-rule:nonzero;fill:#234572;fill-opacity:1;" d="M 147.847656 113.480469 C 147.773438 113.171875 147.703125 112.863281 147.636719 112.5625 C 147.214844 110.695312 146.871094 109.007812 146.605469 107.496094 C 149.578125 105.441406 153.5625 102.726562 156.65625 100.863281 C 159.957031 100.59375 164.367188 100.277344 167.675781 100.21875 C 167.9375 101.710938 168.277344 103.375 168.695312 105.222656 C 168.761719 105.519531 168.832031 105.820312 168.902344 106.128906 C 165.933594 108.0625 161.988281 110.667969 159.125 112.757812 C 155.738281 112.910156 151.21875 113.144531 147.847656 113.480469 "/><path style=" stroke:none;fill-rule:nonzero;fill:#234572;fill-opacity:1;" d="M 126.441406 126.164062 C 126.371094 125.867188 126.304688 125.574219 126.238281 125.285156 C 125.835938 123.492188 125.507812 121.875 125.25 120.425781 C 127.710938 117.816406 131.015625 114.359375 133.621094 111.890625 C 136.570312 110.9375 140.523438 109.703125 143.535156 108.964844 C 143.800781 110.46875 144.144531 112.15625 144.5625 114.019531 C 144.632812 114.320312 144.703125 114.628906 144.773438 114.9375 C 142.113281 117.492188 138.582031 120.917969 136.050781 123.601562 C 133.152344 124.308594 129.289062 125.269531 126.441406 126.164062 "/><path style=" stroke:none;fill-rule:nonzero;fill:#234572;fill-opacity:1;" d="M 109.34375 142.265625 C 109.28125 142 109.222656 141.734375 109.164062 141.472656 C 108.796875 139.859375 108.503906 138.402344 108.273438 137.101562 C 110.15625 134.105469 112.691406 130.128906 114.722656 127.234375 C 117.085938 125.730469 120.261719 123.75 122.738281 122.445312 C 122.992188 123.875 123.316406 125.476562 123.714844 127.253906 C 123.78125 127.539062 123.847656 127.832031 123.917969 128.125 C 121.789062 131.078125 118.96875 135.03125 116.972656 138.074219 C 114.648438 139.265625 111.5625 140.882812 109.34375 142.265625 "/><path style=" stroke:none;fill-rule:nonzero;fill:#234572;fill-opacity:1;" d="M 96.976562 160.902344 C 96.925781 160.679688 96.875 160.460938 96.828125 160.242188 C 96.523438 158.898438 96.273438 157.679688 96.085938 156.59375 C 97.339844 153.371094 99.042969 149.082031 100.453125 145.921875 C 102.167969 143.953125 104.488281 141.351562 106.371094 139.546875 C 106.59375 140.824219 106.886719 142.253906 107.242188 143.835938 C 107.300781 144.089844 107.359375 144.347656 107.421875 144.613281 C 105.871094 147.792969 103.824219 152.050781 102.398438 155.292969 C 100.714844 156.917969 98.492188 159.121094 96.976562 160.902344 "/><path style=" stroke:none;fill-rule:nonzero;fill:#234572;fill-opacity:1;" d="M 89.765625 181.199219 C 89.726562 181.035156 89.6875 180.867188 89.652344 180.703125 C 89.425781 179.699219 89.242188 178.792969 89.097656 177.980469 C 89.683594 174.675781 90.484375 170.277344 91.222656 167.003906 C 92.242188 164.675781 93.632812 161.574219 94.847656 159.339844 C 95.035156 160.394531 95.273438 161.574219 95.570312 162.878906 C 95.617188 163.089844 95.664062 163.304688 95.714844 163.519531 C 94.785156 166.773438 93.5625 171.113281 92.757812 174.402344 C 91.789062 176.40625 90.527344 179.105469 89.765625 181.199219 "/><g clip-rule="nonzero" clip-path="url(#aa62381a4f)"><path style=" stroke:none;fill-rule:nonzero;fill:#234572;fill-opacity:1;" d="M 88.128906 202.273438 C 88.105469 202.175781 88.082031 202.078125 88.058594 201.980469 C 87.921875 201.375 87.8125 200.828125 87.726562 200.339844 C 87.582031 197.105469 87.421875 192.789062 87.445312 189.550781 C 87.71875 186.953125 88.113281 183.484375 88.585938 180.910156 C 88.71875 181.679688 88.894531 182.542969 89.109375 183.5 C 89.144531 183.652344 89.183594 183.8125 89.21875 183.96875 C 88.949219 187.140625 88.609375 191.371094 88.480469 194.550781 C 88.304688 196.867188 88.105469 199.957031 88.128906 202.273438 "/></g><path style=" stroke:none;fill-rule:nonzero;fill:#234572;fill-opacity:1;" d="M 283.730469 149.148438 C 283.6875 149.003906 283.648438 148.871094 283.617188 148.742188 L 285.636719 152.523438 L 283.730469 149.148438 "/><path style=" stroke:none;fill-rule:nonzero;fill:#234572;fill-opacity:1;" d="M 271.355469 134.71875 C 271.117188 133.902344 270.898438 133.128906 270.707031 132.40625 C 272.566406 134.128906 275.019531 136.460938 276.714844 138.34375 C 278.394531 140.722656 280.617188 143.90625 282.183594 146.359375 C 282.238281 146.570312 282.304688 146.792969 282.371094 147.03125 C 280.988281 145.277344 279.113281 142.953125 277.554688 141.351562 C 275.722656 139.339844 272.734375 137.070312 271.355469 134.71875 "/><path style=" stroke:none;fill-rule:nonzero;fill:#234572;fill-opacity:1;" d="M 254.652344 123.96875 C 254.234375 122.546875 253.855469 121.195312 253.523438 119.929688 C 255.816406 120.875 258.863281 122.175781 261.054688 123.335938 C 263.359375 125.464844 266.421875 128.3125 268.652344 130.519531 C 268.863281 131.320312 269.101562 132.175781 269.367188 133.074219 C 267.46875 132.066406 264.910156 130.75 262.90625 129.964844 C 260.445312 128.140625 256.4375 126.453125 254.652344 123.96875 "/><path style=" stroke:none;fill-rule:nonzero;fill:#234572;fill-opacity:1;" d="M 234.574219 117.09375 C 234 115.152344 233.484375 113.308594 233.03125 111.582031 C 235.636719 111.757812 239.113281 112.035156 241.691406 112.445312 C 244.496094 114.257812 248.222656 116.6875 250.972656 118.578125 C 251.320312 119.910156 251.71875 121.332031 252.160156 122.828125 C 249.847656 122.570312 246.753906 122.265625 244.429688 122.242188 C 241.484375 120.679688 237.550781 118.597656 234.574219 117.09375 "/><path style=" stroke:none;fill-rule:nonzero;fill:#234572;fill-opacity:1;" d="M 212.085938 114.3125 C 211.390625 111.957031 210.765625 109.722656 210.214844 107.625 C 213.019531 107.046875 216.769531 106.3125 219.613281 105.957031 C 222.777344 107.375 226.992188 109.285156 230.117188 110.796875 C 230.585938 112.582031 231.117188 114.484375 231.707031 116.488281 C 229.105469 116.980469 225.636719 117.671875 223.082031 118.375 C 219.792969 117.128906 215.402344 115.480469 212.085938 114.3125 "/><path style=" stroke:none;fill-rule:nonzero;fill:#234572;fill-opacity:1;" d="M 163.71875 121.828125 C 162.902344 119.050781 162.164062 116.414062 161.511719 113.941406 C 164.394531 111.910156 168.253906 109.222656 171.238281 107.351562 C 174.710938 107.726562 179.339844 108.253906 182.792969 108.78125 C 183.417969 111.15625 184.125 113.6875 184.910156 116.355469 C 182.078125 118.261719 178.3125 120.828125 175.574219 122.867188 C 172.019531 122.507812 167.28125 122.050781 163.71875 121.828125 "/><path style=" stroke:none;fill-rule:nonzero;fill:#234572;fill-opacity:1;" d="M 140.378906 132.226562 C 139.570312 129.480469 138.839844 126.871094 138.195312 124.425781 C 140.789062 121.789062 144.269531 118.285156 146.992188 115.78125 C 150.371094 115.507812 154.886719 115.171875 158.28125 115.074219 C 158.933594 117.550781 159.671875 120.191406 160.492188 122.972656 C 157.722656 125.503906 154.050781 128.898438 151.398438 131.542969 C 148.089844 131.699219 143.675781 131.925781 140.378906 132.226562 "/><path style=" stroke:none;fill-rule:nonzero;fill:#234572;fill-opacity:1;" d="M 120.777344 145.773438 C 120.027344 143.222656 119.347656 140.796875 118.75 138.519531 C 120.816406 135.511719 123.597656 131.511719 125.789062 128.59375 C 128.648438 127.785156 132.472656 126.738281 135.375 126.109375 C 136.015625 128.539062 136.742188 131.132812 137.542969 133.863281 C 135.242188 136.769531 132.191406 140.664062 130 143.65625 C 127.222656 144.234375 123.515625 145.027344 120.777344 145.773438 "/><path style=" stroke:none;fill-rule:nonzero;fill:#234572;fill-opacity:1;" d="M 105.515625 161.644531 C 104.859375 159.421875 104.269531 157.3125 103.75 155.335938 C 105.25 152.117188 107.273438 147.839844 108.898438 144.6875 C 111.140625 143.398438 114.152344 141.714844 116.492188 140.613281 C 117.082031 142.855469 117.753906 145.246094 118.492188 147.765625 C 116.710938 150.875 114.351562 155.027344 112.671875 158.191406 C 110.496094 159.164062 107.597656 160.488281 105.515625 161.644531 "/><path style=" stroke:none;fill-rule:nonzero;fill:#234572;fill-opacity:1;" d="M 95.035156 179.050781 C 94.515625 177.28125 94.042969 175.601562 93.628906 174.023438 C 94.519531 170.761719 95.730469 166.414062 96.742188 163.1875 C 98.296875 161.492188 100.402344 159.253906 102.113281 157.722656 C 102.625 159.65625 103.199219 161.714844 103.839844 163.882812 C 102.617188 167.027344 101 171.222656 99.878906 174.40625 C 98.371094 175.738281 96.378906 177.550781 95.035156 179.050781 "/><path style=" stroke:none;fill-rule:nonzero;fill:#234572;fill-opacity:1;" d="M 89.785156 197.210938 C 89.429688 195.992188 89.105469 194.839844 88.824219 193.757812 C 89.050781 190.597656 89.378906 186.382812 89.746094 183.234375 C 90.550781 181.214844 91.664062 178.527344 92.675781 176.601562 C 93.074219 178.117188 93.527344 179.730469 94.027344 181.429688 C 93.402344 184.457031 92.585938 188.5 92.070312 191.546875 C 91.308594 193.214844 90.332031 195.460938 89.785156 197.210938 "/><path style=" stroke:none;fill-rule:nonzero;fill:#234572;fill-opacity:1;" d="M 90.21875 215.347656 C 90.046875 214.765625 89.894531 214.210938 89.757812 213.691406 C 89.273438 210.78125 88.65625 206.890625 88.335938 203.957031 C 88.347656 201.691406 88.386719 198.664062 88.605469 196.410156 C 88.871094 197.421875 89.175781 198.5 89.507812 199.636719 C 89.519531 202.40625 89.554688 206.101562 89.707031 208.867188 C 89.789062 210.816406 89.941406 213.417969 90.21875 215.347656 "/><path style=" stroke:none;fill-rule:nonzero;fill:#234572;fill-opacity:1;" d="M 90.988281 218.808594 L 90.546875 217.148438 L 90.335938 216.304688 C 90.453125 216.746094 90.582031 217.214844 90.726562 217.710938 L 91.539062 220.714844 C 91.375 220.144531 91.148438 219.382812 90.988281 218.808594 "/><path style=" stroke:none;fill-rule:nonzero;fill:#234572;fill-opacity:1;" d="M 278.863281 144.070312 C 278.671875 143.5 278.496094 142.949219 278.328125 142.417969 C 279.785156 144.046875 281.695312 146.25 282.976562 148.019531 L 285.636719 152.523438 L 283.402344 149.339844 C 282.070312 147.734375 279.921875 145.871094 278.863281 144.070312 "/><path style=" stroke:none;fill-rule:nonzero;fill:#234572;fill-opacity:1;" d="M 265.277344 135.074219 C 264.839844 133.765625 264.433594 132.496094 264.050781 131.28125 C 265.980469 132.113281 268.542969 133.265625 270.359375 134.316406 C 272.285156 136.21875 274.839844 138.765625 276.695312 140.738281 C 276.886719 141.363281 277.097656 142.011719 277.320312 142.6875 C 275.832031 141.832031 273.820312 140.71875 272.222656 140.09375 C 270.152344 138.570312 266.8125 137.136719 265.277344 135.074219 "/><path style=" stroke:none;fill-rule:nonzero;fill:#234572;fill-opacity:1;" d="M 247.714844 129.433594 C 247.0625 127.46875 246.449219 125.570312 245.882812 123.75 C 248.164062 123.820312 251.210938 123.953125 253.472656 124.261719 C 256 125.984375 259.363281 128.289062 261.84375 130.070312 C 262.25 131.371094 262.6875 132.726562 263.152344 134.128906 C 261.199219 134.019531 258.582031 133.917969 256.628906 134.042969 C 253.960938 132.644531 249.679688 131.710938 247.714844 129.433594 "/><path style=" stroke:none;fill-rule:nonzero;fill:#234572;fill-opacity:1;" d="M 227.101562 127.234375 C 226.269531 124.734375 225.488281 122.3125 224.765625 119.992188 C 227.300781 119.335938 230.695312 118.488281 233.273438 118.046875 C 236.269531 119.519531 240.261719 121.496094 243.226562 123.03125 C 243.816406 124.925781 244.457031 126.898438 245.132812 128.941406 C 242.832031 129.5625 239.769531 130.429688 237.53125 131.242188 C 234.40625 130.023438 230.242188 128.410156 227.101562 127.234375 "/><path style=" stroke:none;fill-rule:nonzero;fill:#234572;fill-opacity:1;" d="M 204.367188 128.578125 C 203.398438 125.667969 202.492188 122.859375 201.652344 120.164062 C 204.34375 118.816406 207.945312 117.039062 210.714844 115.859375 C 214.046875 117.011719 218.488281 118.558594 221.792969 119.785156 C 222.535156 122.164062 223.335938 124.644531 224.1875 127.210938 C 221.65625 128.515625 218.289062 130.292969 215.839844 131.746094 C 212.402344 130.777344 207.820312 129.488281 204.367188 128.578125 "/><path style=" stroke:none;fill-rule:nonzero;fill:#234572;fill-opacity:1;" d="M 180.429688 133.542969 C 179.378906 130.390625 178.398438 127.347656 177.488281 124.421875 C 180.234375 122.417969 183.914062 119.765625 186.757812 117.894531 C 190.285156 118.640625 194.984375 119.648438 198.484375 120.492188 C 199.339844 123.226562 200.257812 126.078125 201.238281 129.023438 C 198.578125 130.960938 195.046875 133.5625 192.472656 135.613281 C 188.863281 134.960938 184.050781 134.109375 180.429688 133.542969 "/><path style=" stroke:none;fill-rule:nonzero;fill:#234572;fill-opacity:1;" d="M 156.265625 142.207031 C 155.195312 138.992188 154.191406 135.886719 153.265625 132.910156 C 155.957031 130.304688 159.5625 126.84375 162.355469 124.347656 C 165.929688 124.589844 170.691406 124.929688 174.25 125.304688 C 175.167969 128.242188 176.15625 131.308594 177.210938 134.480469 C 174.519531 136.976562 170.949219 140.316406 168.339844 142.894531 C 164.71875 142.652344 159.890625 142.34375 156.265625 142.207031 "/><path style=" stroke:none;fill-rule:nonzero;fill:#234572;fill-opacity:1;" d="M 116.605469 167.046875 C 115.683594 164.273438 114.820312 161.59375 114.019531 159.027344 C 115.753906 155.890625 118.085938 151.714844 119.917969 148.632812 C 122.644531 147.953125 126.292969 147.078125 129.058594 146.558594 C 129.9375 149.382812 130.886719 152.332031 131.902344 155.378906 C 129.914062 158.40625 127.277344 162.453125 125.367188 165.53125 C 122.730469 165.9375 119.214844 166.492188 116.605469 167.046875 "/><path style=" stroke:none;fill-rule:nonzero;fill:#234572;fill-opacity:1;" d="M 103.039062 181.585938 C 102.269531 179.273438 101.546875 177.039062 100.878906 174.894531 C 102.066406 171.738281 103.664062 167.539062 104.945312 164.421875 C 107.035156 163.347656 109.835938 161.949219 112.007812 161.054688 C 112.792969 163.578125 113.640625 166.203125 114.542969 168.921875 C 113.054688 171.945312 111.078125 175.976562 109.65625 179.03125 C 107.648438 179.738281 104.976562 180.703125 103.039062 181.585938 "/><path style=" stroke:none;fill-rule:nonzero;fill:#234572;fill-opacity:1;" d="M 94.292969 196.648438 C 93.71875 194.921875 93.179688 193.25 92.679688 191.648438 C 93.269531 188.628906 94.074219 184.605469 94.769531 181.605469 C 96.128906 180.191406 97.980469 178.328125 99.496094 177.082031 C 100.144531 179.160156 100.84375 181.328125 101.589844 183.570312 C 100.632812 186.433594 99.371094 190.25 98.488281 193.136719 C 97.179688 194.128906 95.449219 195.484375 94.292969 196.648438 "/><path style=" stroke:none;fill-rule:nonzero;fill:#234572;fill-opacity:1;" d="M 90.851562 211.570312 C 90.507812 210.53125 90.183594 209.527344 89.882812 208.5625 C 89.820312 205.824219 89.769531 202.164062 89.839844 199.421875 C 90.410156 197.738281 91.199219 195.492188 91.988281 193.902344 C 92.464844 195.421875 92.972656 197.011719 93.519531 198.652344 C 93.140625 201.21875 92.640625 204.640625 92.355469 207.21875 C 91.824219 208.492188 91.15625 210.222656 90.851562 211.570312 "/><path style=" stroke:none;fill-rule:nonzero;fill:#234572;fill-opacity:1;" d="M 92.597656 224.0625 C 92.394531 223.4375 92.121094 222.601562 91.921875 221.972656 L 91.761719 221.449219 L 90.613281 217.101562 C 90.34375 215.214844 90.003906 212.6875 89.941406 210.78125 C 90.214844 211.652344 90.507812 212.5625 90.820312 213.507812 C 91.054688 215.652344 91.378906 218.515625 91.753906 220.644531 C 92.003906 221.667969 92.269531 223.058594 92.597656 224.0625 "/><path style=" stroke:none;fill-rule:nonzero;fill:#234572;fill-opacity:1;" d="M 284.300781 150.863281 C 284.234375 150.683594 284.171875 150.503906 284.109375 150.332031 L 285.636719 152.523438 L 284.300781 150.863281 "/><path style=" stroke:none;fill-rule:nonzero;fill:#234572;fill-opacity:1;" d="M 274.601562 144.476562 C 274.226562 143.441406 273.871094 142.429688 273.527344 141.441406 C 275.027344 142.121094 277.019531 143.066406 278.398438 143.964844 C 279.804688 145.445312 281.671875 147.425781 283 148.972656 C 283.097656 149.257812 283.203125 149.550781 283.308594 149.847656 C 282.300781 149.1875 280.921875 148.332031 279.792969 147.90625 C 278.246094 146.863281 275.765625 145.933594 274.601562 144.476562 "/><path style=" stroke:none;fill-rule:nonzero;fill:#234572;fill-opacity:1;" d="M 260.304688 140.976562 C 259.65625 139.175781 259.027344 137.40625 258.433594 135.691406 C 260.332031 135.613281 262.871094 135.546875 264.761719 135.710938 C 266.871094 137.132812 269.683594 139.03125 271.761719 140.5 C 272.140625 141.585938 272.535156 142.703125 272.949219 143.847656 C 271.40625 143.925781 269.34375 144.078125 267.832031 144.382812 C 265.578125 143.359375 262.566406 141.992188 260.304688 140.976562 "/><path style=" stroke:none;fill-rule:nonzero;fill:#234572;fill-opacity:1;" d="M 242.296875 140.320312 C 241.40625 137.859375 240.550781 135.453125 239.738281 133.105469 C 241.949219 132.332031 244.90625 131.324219 247.175781 130.746094 C 249.871094 132.058594 253.464844 133.816406 256.140625 135.164062 C 256.769531 136.972656 257.425781 138.828125 258.109375 140.726562 C 256.167969 141.519531 253.585938 142.617188 251.71875 143.574219 C 248.894531 142.597656 245.125 141.292969 242.296875 140.320312 "/><path style=" stroke:none;fill-rule:nonzero;fill:#234572;fill-opacity:1;" d="M 198.644531 147.394531 C 197.433594 144.046875 196.273438 140.773438 195.171875 137.582031 C 197.738281 135.5625 201.179688 132.886719 203.835938 130.980469 C 207.296875 131.882812 211.910156 133.09375 215.359375 134.046875 C 216.359375 136.949219 217.414062 139.929688 218.515625 142.96875 C 216.082031 144.980469 212.851562 147.683594 210.492188 149.785156 C 206.941406 149.054688 202.203125 148.089844 198.644531 147.394531 "/><path style=" stroke:none;fill-rule:nonzero;fill:#234572;fill-opacity:1;" d="M 151.300781 165.070312 C 150.039062 161.589844 148.832031 158.183594 147.683594 154.863281 C 150.089844 151.945312 153.316406 148.0625 155.8125 145.21875 C 159.4375 145.390625 164.273438 145.640625 167.894531 145.910156 C 169.058594 149.273438 170.28125 152.726562 171.554688 156.25 C 169 159.113281 165.605469 162.933594 163.117188 165.855469 C 159.574219 165.597656 154.847656 165.265625 151.300781 165.070312 "/><path style=" stroke:none;fill-rule:nonzero;fill:#234572;fill-opacity:1;" d="M 130.9375 176.328125 C 129.765625 173.089844 128.644531 169.917969 127.574219 166.832031 C 129.542969 163.78125 132.175781 159.71875 134.21875 156.71875 C 137.394531 156.570312 141.628906 156.398438 144.808594 156.363281 C 145.949219 159.660156 147.148438 163.050781 148.398438 166.507812 C 146.21875 169.472656 143.320312 173.429688 141.195312 176.433594 C 138.121094 176.371094 134.015625 176.300781 130.9375 176.328125 "/><path style=" stroke:none;fill-rule:nonzero;fill:#234572;fill-opacity:1;" d="M 114.347656 188.214844 C 113.332031 185.398438 112.355469 182.644531 111.425781 179.957031 C 112.910156 176.929688 114.90625 172.902344 116.457031 169.90625 C 119.070312 169.441406 122.558594 168.847656 125.191406 168.523438 C 126.246094 171.5625 127.351562 174.691406 128.507812 177.882812 C 126.753906 180.785156 124.425781 184.660156 122.714844 187.589844 C 120.203125 187.734375 116.851562 187.945312 114.347656 188.214844 "/><path style=" stroke:none;fill-rule:nonzero;fill:#234572;fill-opacity:1;" d="M 94.621094 211.746094 C 94.0625 210.207031 93.53125 208.699219 93.019531 207.230469 C 93.402344 204.683594 93.929688 201.289062 94.398438 198.757812 C 95.59375 197.703125 97.222656 196.328125 98.550781 195.449219 C 99.261719 197.503906 100.011719 199.613281 100.789062 201.769531 C 100.011719 204.125 98.980469 207.269531 98.25 209.640625 C 97.128906 210.210938 95.628906 210.996094 94.621094 211.746094 "/><path style=" stroke:none;fill-rule:nonzero;fill:#234572;fill-opacity:1;" d="M 92.539062 222.324219 C 92.273438 221.585938 92.015625 220.863281 91.773438 220.15625 C 91.519531 218.050781 91.203125 215.242188 91.082031 213.125 C 91.4375 211.863281 91.945312 210.171875 92.53125 209 C 93.003906 210.371094 93.503906 211.78125 94.023438 213.21875 C 93.796875 215.117188 93.5 217.648438 93.355469 219.554688 C 93.027344 220.355469 92.632812 221.464844 92.539062 222.324219 "/><path style=" stroke:none;fill-rule:nonzero;fill:#234572;fill-opacity:1;" d="M 93.339844 226.203125 C 93.167969 225.707031 92.933594 225.046875 92.761719 224.546875 L 92.042969 221.789062 C 92.25 222.386719 92.46875 223 92.695312 223.628906 C 92.953125 224.589844 93.234375 225.898438 93.570312 226.835938 L 93.339844 226.203125 "/><path style=" stroke:none;fill-rule:nonzero;fill:#234572;fill-opacity:1;" d="M 281.207031 150.554688 C 280.949219 149.894531 280.703125 149.242188 280.464844 148.597656 C 281.5 149.0625 282.878906 149.738281 283.785156 150.421875 L 285.636719 152.523438 L 284.378906 151.988281 C 283.425781 151.558594 281.921875 151.3125 281.207031 150.554688 "/><path style=" stroke:none;fill-rule:nonzero;fill:#234572;fill-opacity:1;" d="M 270.65625 149.960938 C 270.070312 148.449219 269.503906 146.949219 268.953125 145.472656 C 270.425781 145.199219 272.402344 144.863281 273.898438 144.820312 C 275.496094 145.773438 277.625 147.046875 279.210938 148.027344 C 279.492188 148.785156 279.785156 149.554688 280.085938 150.335938 C 278.984375 150.664062 277.519531 151.152344 276.488281 151.660156 C 274.738281 151.164062 272.398438 150.492188 270.65625 149.960938 "/><path style=" stroke:none;fill-rule:nonzero;fill:#234572;fill-opacity:1;" d="M 255.769531 151.722656 C 254.898438 149.453125 254.046875 147.210938 253.222656 145 C 255.066406 144.058594 257.539062 142.820312 259.460938 142.046875 C 261.75 143.011719 264.800781 144.292969 267.089844 145.257812 C 267.675781 146.839844 268.289062 148.441406 268.914062 150.0625 C 267.363281 151.089844 265.316406 152.484375 263.851562 153.625 C 261.425781 153.070312 258.191406 152.316406 255.769531 151.722656 "/><path style=" stroke:none;fill-rule:nonzero;fill:#234572;fill-opacity:1;" d="M 237.375 155.65625 C 236.257812 152.765625 235.171875 149.902344 234.125 147.085938 C 236.265625 145.53125 239.128906 143.476562 241.351562 142.046875 C 244.207031 142.972656 248.011719 144.207031 250.859375 145.128906 C 251.71875 147.429688 252.601562 149.765625 253.511719 152.125 C 251.617188 153.757812 249.101562 155.953125 247.277344 157.667969 C 244.304688 157.074219 240.34375 156.277344 237.375 155.65625 "/><path style=" stroke:none;fill-rule:nonzero;fill:#234572;fill-opacity:1;" d="M 216.296875 161.582031 C 215 158.226562 213.738281 154.902344 212.519531 151.628906 C 214.871094 149.535156 218.015625 146.757812 220.441406 144.753906 C 223.726562 145.589844 228.101562 146.703125 231.382812 147.546875 C 232.457031 150.4375 233.570312 153.371094 234.714844 156.332031 C 232.550781 158.476562 229.675781 161.355469 227.578125 163.566406 C 224.191406 162.972656 219.679688 162.183594 216.296875 161.582031 "/><path style=" stroke:none;fill-rule:nonzero;fill:#234572;fill-opacity:1;" d="M 169.445312 178.675781 C 168.015625 174.96875 166.621094 171.292969 165.273438 167.675781 C 167.785156 164.78125 171.144531 160.925781 173.710938 158.074219 C 177.429688 158.519531 182.390625 159.117188 186.105469 159.621094 C 187.429688 163.191406 188.808594 166.816406 190.21875 170.476562 C 187.757812 173.332031 184.472656 177.148438 182.039062 180.027344 C 178.261719 179.617188 173.226562 179.066406 169.445312 178.675781 "/><path style=" stroke:none;fill-rule:nonzero;fill:#234572;fill-opacity:1;" d="M 127.980469 198.511719 C 126.742188 195.3125 125.542969 192.140625 124.378906 189.023438 C 126.128906 186.117188 128.472656 182.246094 130.261719 179.367188 C 133.320312 179.390625 137.394531 179.4375 140.449219 179.542969 C 141.726562 182.976562 143.050781 186.460938 144.410156 189.980469 C 142.433594 192.792969 139.804688 196.542969 137.847656 199.367188 C 134.890625 199.089844 130.941406 198.730469 127.980469 198.511719 "/><path style=" stroke:none;fill-rule:nonzero;fill:#234572;fill-opacity:1;" d="M 112.53125 207.847656 C 111.5 205.175781 110.496094 202.53125 109.527344 199.925781 C 110.824219 197.238281 112.558594 193.664062 113.890625 190.992188 C 116.371094 190.796875 119.683594 190.5625 122.171875 190.480469 C 123.308594 193.542969 124.488281 196.648438 125.703125 199.789062 C 124.125 202.339844 122.023438 205.734375 120.449219 208.285156 C 118.074219 208.125 114.90625 207.921875 112.53125 207.847656 "/><path style=" stroke:none;fill-rule:nonzero;fill:#234572;fill-opacity:1;" d="M 101.382812 216.265625 C 100.613281 214.269531 99.863281 212.292969 99.140625 210.347656 C 99.929688 208.011719 100.996094 204.898438 101.828125 202.574219 C 103.632812 202.152344 106.046875 201.625 107.878906 201.347656 C 108.816406 203.871094 109.792969 206.4375 110.789062 209.023438 C 109.65625 211.183594 108.140625 214.066406 107.003906 216.222656 C 105.316406 216.199219 103.066406 216.175781 101.382812 216.265625 "/><path style=" stroke:none;fill-rule:nonzero;fill:#234572;fill-opacity:1;" d="M 95.117188 223.375 C 94.652344 222.171875 94.203125 220.984375 93.769531 219.8125 C 93.996094 217.945312 94.3125 215.457031 94.613281 213.597656 C 95.628906 212.957031 97.015625 212.132812 98.125 211.671875 C 98.8125 213.519531 99.527344 215.394531 100.257812 217.292969 C 99.609375 218.949219 98.75 221.164062 98.113281 222.824219 C 97.207031 222.941406 95.988281 223.097656 95.117188 223.375 "/><path style=" stroke:none;fill-rule:nonzero;fill:#234572;fill-opacity:1;" d="M 94.226562 228.578125 L 93.945312 227.839844 L 93.703125 227.195312 C 93.40625 226.105469 92.980469 224.65625 92.78125 223.542969 C 92.902344 222.753906 93.097656 221.683594 93.460938 220.972656 C 93.855469 222.03125 94.265625 223.109375 94.683594 224.195312 C 94.566406 225.257812 94.410156 226.671875 94.371094 227.734375 C 94.28125 227.976562 94.160156 228.332031 94.226562 228.578125 "/><path style=" stroke:none;fill-rule:nonzero;fill:#234572;fill-opacity:1;" d="M 285.066406 152.84375 C 284.984375 152.648438 284.90625 152.453125 284.832031 152.261719 L 285.636719 152.523438 L 285.066406 152.84375 "/><path style=" stroke:none;fill-rule:nonzero;fill:#234572;fill-opacity:1;" d="M 278.953125 155.742188 C 278.5 154.636719 278.054688 153.53125 277.621094 152.429688 C 278.597656 151.941406 279.914062 151.296875 280.96875 150.996094 C 281.929688 151.347656 283.210938 151.820312 284.179688 152.144531 C 284.308594 152.464844 284.4375 152.785156 284.566406 153.101562 C 283.980469 153.738281 283.222656 154.609375 282.703125 155.300781 C 281.585938 155.488281 280.085938 155.691406 278.953125 155.742188 "/><path style=" stroke:none;fill-rule:nonzero;fill:#234572;fill-opacity:1;" d="M 252.660156 167.148438 C 251.582031 164.511719 250.519531 161.878906 249.484375 159.261719 C 251.273438 157.542969 253.667969 155.261719 255.535156 153.628906 C 257.964844 154.152344 261.207031 154.84375 263.648438 155.320312 C 264.449219 157.339844 265.265625 159.367188 266.097656 161.398438 C 264.605469 163.257812 262.621094 165.746094 261.183594 167.648438 C 258.625 167.527344 255.214844 167.351562 252.660156 167.148438 "/><path style=" stroke:none;fill-rule:nonzero;fill:#234572;fill-opacity:1;" d="M 234.019531 175 C 232.707031 171.808594 231.421875 168.617188 230.164062 165.441406 C 232.238281 163.230469 235.015625 160.292969 237.152344 158.140625 C 240.132812 158.707031 244.101562 159.453125 247.089844 159.984375 C 248.160156 162.6875 249.253906 165.402344 250.367188 168.121094 C 248.535156 170.445312 246.097656 173.550781 244.308594 175.90625 C 241.21875 175.65625 237.101562 175.3125 234.019531 175 "/><path style=" stroke:none;fill-rule:nonzero;fill:#234572;fill-opacity:1;" d="M 144.574219 211.613281 C 143.152344 208.148438 141.757812 204.683594 140.390625 201.238281 C 142.386719 198.429688 145.050781 194.683594 147.0625 191.882812 C 150.492188 192.25 155.074219 192.738281 158.503906 193.128906 C 159.960938 196.808594 161.453125 200.511719 162.96875 204.214844 C 160.800781 206.980469 157.914062 210.667969 155.742188 213.429688 C 152.390625 212.882812 147.921875 212.15625 144.574219 211.613281 "/><path style=" stroke:none;fill-rule:nonzero;fill:#234572;fill-opacity:1;" d="M 111.507812 224.628906 C 110.523438 222.230469 109.558594 219.832031 108.613281 217.449219 C 109.808594 215.3125 111.398438 212.46875 112.585938 210.328125 C 114.957031 210.492188 118.117188 210.722656 120.484375 210.953125 C 121.644531 213.878906 122.828125 216.820312 124.03125 219.761719 C 122.550781 221.757812 120.574219 224.414062 119.054688 226.378906 C 116.792969 225.84375 113.777344 225.128906 111.507812 224.628906 "/><path style=" stroke:none;fill-rule:nonzero;fill:#234572;fill-opacity:1;" d="M 101.109375 228.539062 C 100.433594 226.890625 99.769531 225.242188 99.121094 223.601562 C 99.832031 221.972656 100.777344 219.800781 101.488281 218.171875 C 103.167969 218.1875 105.40625 218.238281 107.082031 218.351562 C 107.992188 220.644531 108.921875 222.949219 109.867188 225.257812 C 108.808594 226.710938 107.390625 228.648438 106.277344 230.0625 C 104.730469 229.59375 102.667969 228.972656 101.109375 228.539062 "/><path style=" stroke:none;fill-rule:nonzero;fill:#234572;fill-opacity:1;" d="M 95.652344 230.382812 C 95.332031 229.59375 95.011719 228.800781 94.699219 228.015625 C 94.847656 226.984375 95.066406 225.613281 95.269531 224.589844 C 96.148438 224.449219 97.335938 224.308594 98.226562 224.296875 C 98.835938 225.828125 99.457031 227.367188 100.085938 228.90625 C 99.507812 229.730469 98.738281 230.835938 98.101562 231.613281 C 97.363281 231.246094 96.210938 230.988281 95.652344 230.382812 "/><path style=" stroke:none;fill-rule:nonzero;fill:#234572;fill-opacity:1;" d="M 95.113281 230.792969 C 94.71875 229.828125 94.71875 229.828125 94.527344 229.339844 L 94.367188 228.9375 C 94.394531 228.800781 94.433594 228.621094 94.464844 228.484375 L 94.527344 228.449219 C 94.789062 229.117188 95.058594 229.789062 95.335938 230.457031 C 95.28125 230.589844 95.273438 230.816406 95.152344 230.886719 L 95.113281 230.792969 "/><path style=" stroke:none;fill-rule:nonzero;fill:#234572;fill-opacity:1;" d="M 284.050781 157.503906 C 283.765625 156.84375 283.480469 156.175781 283.199219 155.507812 C 283.679688 154.792969 284.3125 153.835938 284.855469 153.167969 L 285.636719 152.523438 L 285.535156 154.765625 C 285.175781 155.628906 284.640625 156.777344 284.050781 157.503906 "/><path style=" stroke:none;fill-rule:nonzero;fill:#234572;fill-opacity:1;" d="M 277.191406 165.917969 C 276.535156 164.402344 275.882812 162.871094 275.238281 161.335938 C 276.21875 159.96875 277.53125 158.148438 278.574219 156.832031 C 279.738281 156.683594 281.300781 156.480469 282.4375 156.175781 C 282.769531 156.964844 283.105469 157.75 283.441406 158.53125 C 282.875 160.113281 282.117188 162.226562 281.546875 163.808594 C 280.277344 164.507812 278.546875 165.402344 277.191406 165.917969 "/><path style=" stroke:none;fill-rule:nonzero;fill:#234572;fill-opacity:1;" d="M 265.554688 175.613281 C 264.570312 173.339844 263.59375 171.050781 262.628906 168.75 C 264.035156 166.824219 265.917969 164.265625 267.378906 162.382812 C 269.3125 162.378906 271.886719 162.359375 273.8125 162.234375 C 274.503906 163.878906 275.203125 165.519531 275.90625 167.140625 C 274.851562 169.257812 273.453125 172.078125 272.417969 174.203125 C 270.371094 174.679688 267.632812 175.285156 265.554688 175.613281 "/><path style=" stroke:none;fill-rule:nonzero;fill:#234572;fill-opacity:1;" d="M 162.488281 226.125 C 160.945312 222.5625 159.414062 218.96875 157.898438 215.363281 C 160.089844 212.605469 163.003906 208.925781 165.1875 206.164062 C 168.886719 206.664062 173.820312 207.324219 177.523438 207.796875 C 179.097656 211.550781 180.695312 215.292969 182.300781 219 C 179.996094 221.773438 176.921875 225.46875 174.59375 228.222656 C 170.960938 227.609375 166.113281 226.785156 162.488281 226.125 "/><path style=" stroke:none;fill-rule:nonzero;fill:#234572;fill-opacity:1;" d="M 141.789062 232.234375 C 140.398438 229.027344 139.019531 225.796875 137.660156 222.546875 C 139.550781 220.140625 142.074219 216.925781 143.941406 214.5 C 147.273438 215.074219 151.71875 215.839844 155.054688 216.414062 C 156.550781 219.984375 158.070312 223.542969 159.597656 227.066406 C 157.527344 229.4375 154.761719 232.589844 152.648438 234.914062 C 149.390625 234.121094 145.042969 233.054688 141.789062 232.234375 "/><path style=" stroke:none;fill-rule:nonzero;fill:#234572;fill-opacity:1;" d="M 124.058594 235.992188 C 122.894531 233.316406 121.746094 230.617188 120.609375 227.90625 C 122.15625 225.957031 124.210938 223.351562 125.71875 221.371094 C 128.5625 221.960938 132.355469 222.757812 135.195312 223.367188 C 136.535156 226.554688 137.886719 229.726562 139.25 232.871094 C 137.46875 234.738281 135.089844 237.21875 133.246094 239.023438 C 130.488281 238.117188 126.808594 236.910156 124.058594 235.992188 "/><path style=" stroke:none;fill-rule:nonzero;fill:#234572;fill-opacity:1;" d="M 109.992188 237.289062 C 109.125 235.289062 108.265625 233.273438 107.417969 231.25 C 108.5625 229.855469 110.074219 227.984375 111.164062 226.546875 C 113.402344 227.113281 116.386719 227.878906 118.621094 228.472656 C 119.726562 231.097656 120.839844 233.714844 121.964844 236.308594 C 120.53125 237.589844 118.613281 239.292969 117.101562 240.480469 C 114.964844 239.527344 111.628906 238.957031 109.992188 237.289062 "/><path style=" stroke:none;fill-rule:nonzero;fill:#234572;fill-opacity:1;" d="M 100.300781 236.023438 C 99.777344 234.820312 99.257812 233.609375 98.75 232.390625 C 99.425781 231.636719 100.308594 230.609375 100.921875 229.804688 C 102.445312 230.316406 104.476562 231 105.992188 231.53125 C 106.800781 233.457031 107.617188 235.371094 108.441406 237.273438 C 107.417969 237.90625 106.042969 238.746094 104.9375 239.222656 C 103.535156 238.277344 101.355469 237.339844 100.300781 236.023438 "/><path style=" stroke:none;fill-rule:nonzero;fill:#234572;fill-opacity:1;" d="M 95.84375 232.515625 L 95.738281 232.273438 C 95.601562 231.953125 95.417969 231.523438 95.285156 231.203125 C 95.410156 231.144531 95.570312 231.023438 95.648438 230.90625 C 96.339844 231.355469 97.265625 231.941406 97.972656 232.363281 C 98.4375 233.46875 98.90625 234.566406 99.378906 235.65625 C 98.792969 235.605469 97.980469 235.484375 97.472656 235.1875 C 96.964844 234.398438 96.234375 233.371094 95.84375 232.515625 "/><path style=" stroke:none;fill-rule:nonzero;fill:#234572;fill-opacity:1;" d="M 285.925781 154.824219 C 285.84375 154.644531 285.757812 154.457031 285.675781 154.269531 L 285.636719 152.523438 L 285.925781 154.824219 "/><path style=" stroke:none;fill-rule:nonzero;fill:#234572;fill-opacity:1;" d="M 283.847656 167.015625 C 283.371094 165.984375 282.894531 164.925781 282.417969 163.855469 C 282.910156 162.238281 283.566406 160.078125 284.046875 158.453125 C 284.585938 157.597656 285.269531 156.414062 285.566406 155.449219 C 285.703125 155.753906 285.84375 156.0625 285.980469 156.359375 C 285.988281 158.222656 285.980469 160.703125 285.910156 162.5625 C 285.375 163.933594 284.621094 165.761719 283.847656 167.015625 "/><g clip-rule="nonzero" clip-path="url(#819099219f)"><path style=" stroke:none;fill-rule:nonzero;fill:#234572;fill-opacity:1;" d="M 108.402344 245.339844 C 107.691406 243.796875 106.980469 242.226562 106.269531 240.628906 C 107.414062 240.128906 108.925781 239.417969 109.992188 238.765625 C 112.117188 239.796875 114.949219 241.167969 117.085938 242.171875 C 118.078125 244.40625 119.074219 246.605469 120.070312 248.761719 C 118.609375 249.238281 116.648438 249.847656 115.132812 250.113281 C 113.101562 248.703125 109.964844 247.261719 108.402344 245.339844 "/></g><path style=" stroke:none;fill-rule:nonzero;fill:#234572;fill-opacity:1;" d="M 99.15625 238.445312 C 98.8125 237.707031 98.472656 236.953125 98.128906 236.183594 C 98.75 236.441406 99.621094 236.746094 100.289062 236.75 C 101.660156 237.804688 103.5 239.199219 104.90625 240.207031 C 105.570312 241.695312 106.238281 243.167969 106.902344 244.605469 C 105.804688 244.347656 104.335938 243.953125 103.328125 243.453125 C 102.042969 241.980469 100.164062 240.121094 99.15625 238.445312 "/><path style=" stroke:none;fill-rule:nonzero;fill:#234572;fill-opacity:1;" d="M 96.445312 233.871094 C 96.316406 233.578125 96.140625 233.191406 96.011719 232.902344 C 96.433594 233.648438 96.953125 234.671875 97.433594 235.378906 C 97.726562 236.027344 98.015625 236.667969 98.304688 237.296875 L 97.011719 235.105469 C 96.839844 234.734375 96.613281 234.242188 96.445312 233.871094 "/><g clip-rule="nonzero" clip-path="url(#259e82bf43)"><path style=" stroke:none;fill-rule:nonzero;fill:#234572;fill-opacity:1;" d="M 287.03125 163.957031 C 286.765625 163.421875 286.488281 162.851562 286.199219 162.246094 L 286.195312 162.230469 C 286.179688 160.328125 286.15625 157.792969 286.046875 155.894531 L 285.636719 152.523438 L 286.714844 157.269531 C 286.890625 159.269531 287.09375 161.949219 287.03125 163.957031 "/></g><path style=" stroke:none;fill-rule:nonzero;fill:#234572;fill-opacity:1;" d="M 286.730469 156.445312 C 286.664062 156.324219 286.59375 156.191406 286.519531 156.050781 L 285.636719 152.523438 L 286.730469 156.445312 "/><g clip-rule="nonzero" clip-path="url(#e304076836)"><path style=" stroke:none;fill-rule:nonzero;fill:#234572;fill-opacity:1;" d="M 287.292969 157.339844 C 287.253906 157.292969 287.207031 157.230469 287.160156 157.160156 L 285.636719 152.523438 L 287.292969 157.339844 "/></g><g style="fill:#234572;fill-opacity:1;"><g transform="translate(158.487152, 194.958282)"><path style="stroke:none" d="M 6.4375 0.203125 C 5.320312 0.203125 4.242188 0.046875 3.203125 -0.265625 C 2.160156 -0.585938 1.332031 -1.007812 0.71875 -1.53125 L 1.65625 -3.625 C 2.25 -3.15625 2.976562 -2.769531 3.84375 -2.46875 C 4.707031 -2.175781 5.570312 -2.03125 6.4375 -2.03125 C 7.507812 -2.03125 8.3125 -2.203125 8.84375 -2.546875 C 9.375 -2.890625 9.640625 -3.34375 9.640625 -3.90625 C 9.640625 -4.320312 9.488281 -4.664062 9.1875 -4.9375 C 8.894531 -5.207031 8.519531 -5.414062 8.0625 -5.5625 C 7.613281 -5.71875 6.992188 -5.894531 6.203125 -6.09375 C 5.097656 -6.351562 4.203125 -6.613281 3.515625 -6.875 C 2.835938 -7.132812 2.253906 -7.539062 1.765625 -8.09375 C 1.273438 -8.65625 1.03125 -9.414062 1.03125 -10.375 C 1.03125 -11.175781 1.25 -11.90625 1.6875 -12.5625 C 2.125 -13.21875 2.78125 -13.738281 3.65625 -14.125 C 4.53125 -14.507812 5.601562 -14.703125 6.875 -14.703125 C 7.757812 -14.703125 8.628906 -14.585938 9.484375 -14.359375 C 10.335938 -14.140625 11.078125 -13.828125 11.703125 -13.421875 L 10.84375 -11.328125 C 10.207031 -11.703125 9.546875 -11.984375 8.859375 -12.171875 C 8.171875 -12.367188 7.503906 -12.46875 6.859375 -12.46875 C 5.796875 -12.46875 5.003906 -12.285156 4.484375 -11.921875 C 3.960938 -11.566406 3.703125 -11.09375 3.703125 -10.5 C 3.703125 -10.082031 3.847656 -9.742188 4.140625 -9.484375 C 4.441406 -9.222656 4.820312 -9.015625 5.28125 -8.859375 C 5.738281 -8.710938 6.359375 -8.539062 7.140625 -8.34375 C 8.210938 -8.09375 9.09375 -7.832031 9.78125 -7.5625 C 10.476562 -7.289062 11.070312 -6.878906 11.5625 -6.328125 C 12.050781 -5.773438 12.296875 -5.03125 12.296875 -4.09375 C 12.296875 -3.289062 12.078125 -2.566406 11.640625 -1.921875 C 11.210938 -1.273438 10.554688 -0.757812 9.671875 -0.375 C 8.785156 0.0078125 7.707031 0.203125 6.4375 0.203125 Z M 6.4375 0.203125 "/></g></g><g style="fill:#234572;fill-opacity:1;"><g transform="translate(171.097636, 194.958282)"><path style="stroke:none" d="M 7.90625 -14.484375 C 9.164062 -14.484375 10.257812 -14.273438 11.1875 -13.859375 C 12.125 -13.453125 12.835938 -12.863281 13.328125 -12.09375 C 13.828125 -11.320312 14.078125 -10.40625 14.078125 -9.34375 C 14.078125 -8.289062 13.828125 -7.375 13.328125 -6.59375 C 12.835938 -5.8125 12.125 -5.210938 11.1875 -4.796875 C 10.257812 -4.390625 9.164062 -4.1875 7.90625 -4.1875 L 4.640625 -4.1875 L 4.640625 0 L 1.953125 0 L 1.953125 -14.484375 Z M 7.78125 -6.453125 C 8.957031 -6.453125 9.847656 -6.703125 10.453125 -7.203125 C 11.054688 -7.703125 11.359375 -8.414062 11.359375 -9.34375 C 11.359375 -10.257812 11.054688 -10.96875 10.453125 -11.46875 C 9.847656 -11.96875 8.957031 -12.21875 7.78125 -12.21875 L 4.640625 -12.21875 L 4.640625 -6.453125 Z M 7.78125 -6.453125 "/></g></g><g style="fill:#234572;fill-opacity:1;"><g transform="translate(185.716696, 194.958282)"><path style="stroke:none" d="M 15.265625 0 L 15.234375 -9.609375 L 10.46875 -1.65625 L 9.28125 -1.65625 L 4.515625 -9.484375 L 4.515625 0 L 1.953125 0 L 1.953125 -14.484375 L 4.15625 -14.484375 L 9.921875 -4.890625 L 15.5625 -14.484375 L 17.78125 -14.484375 L 17.796875 0 Z M 15.265625 0 "/></g></g><g style="fill:#234572;fill-opacity:1;"><g transform="translate(205.07766, 194.958282)"><path style="stroke:none" d=""/></g></g><g style="fill:#234572;fill-opacity:1;"><g transform="translate(210.378563, 194.958282)"><path style="stroke:none" d="M 1.953125 -14.484375 L 4.640625 -14.484375 L 4.640625 0 L 1.953125 0 Z M 1.953125 -14.484375 "/></g></g><g style="fill:#234572;fill-opacity:1;"><g transform="translate(216.569874, 194.958282)"><path style="stroke:none" d="M 14.828125 -14.484375 L 14.828125 0 L 12.609375 0 L 4.609375 -9.8125 L 4.609375 0 L 1.953125 0 L 1.953125 -14.484375 L 4.15625 -14.484375 L 12.15625 -4.671875 L 12.15625 -14.484375 Z M 14.828125 -14.484375 "/></g></g><g style="fill:#234572;fill-opacity:1;"><g transform="translate(232.928321, 194.958282)"><path style="stroke:none" d="M 4.890625 -12.21875 L 0.078125 -12.21875 L 0.078125 -14.484375 L 12.375 -14.484375 L 12.375 -12.21875 L 7.578125 -12.21875 L 7.578125 0 L 4.890625 0 Z M 4.890625 -12.21875 "/></g></g><g style="fill:#234572;fill-opacity:1;"><g transform="translate(244.979715, 194.958282)"><path style="stroke:none" d="M 12.8125 -2.25 L 12.8125 0 L 1.953125 0 L 1.953125 -14.484375 L 12.53125 -14.484375 L 12.53125 -12.234375 L 4.640625 -12.234375 L 4.640625 -8.46875 L 11.640625 -8.46875 L 11.640625 -6.25 L 4.640625 -6.25 L 4.640625 -2.25 Z M 12.8125 -2.25 "/></g></g><g style="fill:#234572;fill-opacity:1;"><g transform="translate(258.439179, 194.958282)"><path style="stroke:none" d="M 11.84375 -7.40625 L 14.390625 -7.40625 L 14.390625 -1.640625 C 13.640625 -1.046875 12.769531 -0.585938 11.78125 -0.265625 C 10.789062 0.046875 9.769531 0.203125 8.71875 0.203125 C 7.238281 0.203125 5.90625 -0.113281 4.71875 -0.75 C 3.53125 -1.394531 2.597656 -2.28125 1.921875 -3.40625 C 1.242188 -4.539062 0.90625 -5.820312 0.90625 -7.25 C 0.90625 -8.664062 1.242188 -9.941406 1.921875 -11.078125 C 2.597656 -12.210938 3.53125 -13.097656 4.71875 -13.734375 C 5.914062 -14.378906 7.257812 -14.703125 8.75 -14.703125 C 9.96875 -14.703125 11.070312 -14.5 12.0625 -14.09375 C 13.0625 -13.695312 13.898438 -13.113281 14.578125 -12.34375 L 12.875 -10.6875 C 11.769531 -11.789062 10.4375 -12.34375 8.875 -12.34375 C 7.851562 -12.34375 6.945312 -12.128906 6.15625 -11.703125 C 5.363281 -11.273438 4.742188 -10.671875 4.296875 -9.890625 C 3.847656 -9.117188 3.625 -8.238281 3.625 -7.25 C 3.625 -6.28125 3.847656 -5.410156 4.296875 -4.640625 C 4.742188 -3.867188 5.363281 -3.257812 6.15625 -2.8125 C 6.945312 -2.375 7.847656 -2.15625 8.859375 -2.15625 C 9.992188 -2.15625 10.988281 -2.398438 11.84375 -2.890625 Z M 11.84375 -7.40625 "/></g></g><g style="fill:#234572;fill-opacity:1;"><g transform="translate(274.010764, 194.958282)"><path style="stroke:none" d="M 11.421875 0 L 8.46875 -4.25 C 8.34375 -4.226562 8.15625 -4.21875 7.90625 -4.21875 L 4.640625 -4.21875 L 4.640625 0 L 1.953125 0 L 1.953125 -14.484375 L 7.90625 -14.484375 C 9.164062 -14.484375 10.257812 -14.273438 11.1875 -13.859375 C 12.125 -13.453125 12.835938 -12.863281 13.328125 -12.09375 C 13.828125 -11.320312 14.078125 -10.40625 14.078125 -9.34375 C 14.078125 -8.25 13.8125 -7.304688 13.28125 -6.515625 C 12.75 -5.734375 11.988281 -5.148438 11 -4.765625 L 14.328125 0 Z M 11.359375 -9.34375 C 11.359375 -10.257812 11.054688 -10.96875 10.453125 -11.46875 C 9.847656 -11.96875 8.957031 -12.21875 7.78125 -12.21875 L 4.640625 -12.21875 L 4.640625 -6.4375 L 7.78125 -6.4375 C 8.957031 -6.4375 9.847656 -6.6875 10.453125 -7.1875 C 11.054688 -7.695312 11.359375 -8.414062 11.359375 -9.34375 Z M 11.359375 -9.34375 "/></g></g><g style="fill:#234572;fill-opacity:1;"><g transform="translate(288.733359, 194.958282)"><path style="stroke:none" d="M 11.34375 -3.359375 L 4.09375 -3.359375 L 2.671875 0 L -0.109375 0 L 6.421875 -14.484375 L 9.0625 -14.484375 L 15.609375 0 L 12.796875 0 Z M 10.453125 -5.46875 L 7.71875 -11.796875 L 5.015625 -5.46875 Z M 10.453125 -5.46875 "/></g></g><g style="fill:#234572;fill-opacity:1;"><g transform="translate(303.828675, 194.958282)"><path style="stroke:none" d="M 1.953125 -14.484375 L 4.640625 -14.484375 L 4.640625 -2.28125 L 12.21875 -2.28125 L 12.21875 0 L 1.953125 0 Z M 1.953125 -14.484375 "/></g></g></g></svg>